<?xml version="1.0" encoding="UTF-8" standalone="no"?>
<svg
   xmlns:dc="http://purl.org/dc/elements/1.1/"
   xmlns:cc="http://creativecommons.org/ns#"
   xmlns:rdf="http://www.w3.org/1999/02/22-rdf-syntax-ns#"
   xmlns:svg="http://www.w3.org/2000/svg"
   xmlns="http://www.w3.org/2000/svg"
   id="svg3796"
   version="1.1"
   viewBox="0 0 83.995354 14.037316"
   height="14.037316mm"
   width="83.995354mm">
  <defs
     id="defs3790" />
  <metadata
     id="metadata3793">
    <rdf:RDF>
      <cc:Work
         rdf:about="">
        <dc:format>image/svg+xml</dc:format>
        <dc:type
           rdf:resource="http://purl.org/dc/dcmitype/StillImage" />
        <dc:title></dc:title>
      </cc:Work>
    </rdf:RDF>
  </metadata>
  <g
     transform="translate(161.43815,21.471039)"
     id="layer1">
    <g
       id="text3394"
       style="font-style:normal;font-variant:normal;font-weight:normal;font-stretch:normal;font-size:50.24101257px;line-height:125%;font-family:'Acid Reflux BRK';-inkscape-font-specification:'Acid Reflux BRK';letter-spacing:0px;word-spacing:0px;fill:#ff7f2a;fill-opacity:1;stroke:none;stroke-width:1px;stroke-linecap:butt;stroke-linejoin:miter;stroke-opacity:1"
       transform="matrix(0.24378795,0,0,0.28715258,-169.78717,-89.93823)"
       aria-label="Veripeditus">
      <path
         id="path4628"
         style="font-style:normal;font-variant:normal;font-weight:normal;font-stretch:normal;font-family:'Lethargic BRK';-inkscape-font-specification:'Lethargic BRK';fill:#ff7f2a;fill-opacity:1"
         d="m 50.374416,275.16102 q 0,-0.30144 0.05024,-0.55265 0.05024,-0.30144 0.05024,-0.60289 0,-0.75362 -0.351688,-1.25603 -0.301446,-0.55265 -0.301446,-1.30626 0,-0.65314 0.200964,-1.00482 0.251205,-0.35169 0.251205,-0.75362 0,-0.40193 -0.200964,-0.70337 -0.150723,-0.35169 -0.401928,-0.60289 -0.200964,-0.30145 -0.452169,-0.6029 -0.251205,-0.30144 -0.351687,-0.65313 -0.05024,-0.0502 -0.100482,-0.40193 -0.05024,-0.35168 -0.100482,-0.45217 -0.100482,-0.55265 -0.452169,-1.05506 -0.351687,-0.55265 -0.602892,-1.00482 -0.251205,-0.20096 -0.351687,-0.45217 -0.100482,-0.2512 -0.251205,-0.50241 -0.251205,-0.40193 -0.602892,-0.75361 -0.301447,-0.40193 -0.401929,-0.95458 -0.100482,-0.55265 -0.200964,-1.15554 -0.05024,-0.65314 -0.301446,-1.20579 -0.150723,-0.2512 -0.452169,-0.60289 -0.251205,-0.35169 -0.552651,-0.70338 -0.251205,-0.40192 -0.50241,-0.75361 -0.200964,-0.35169 -0.200964,-0.60289 l 0.100482,-0.15073 v -0.40192 q 0,-0.55266 -0.150723,-1.10531 -0.100482,-0.10048 -0.100482,-0.20096 -0.05024,0 -0.200964,-0.15072 0,-0.0502 0,-0.20097 0.05024,-0.20096 0,-0.2512 -0.05024,-0.25121 -0.301446,-0.45217 -0.200964,-0.20097 -0.200964,-0.45217 v -0.50241 q -0.05024,-0.0502 -0.150723,-0.20096 -0.100482,-0.15073 -0.150723,-0.20097 0,-0.0502 -0.05024,-0.20096 0,-0.15073 0,-0.20097 -0.552652,-0.60289 -1.155544,-1.05506 -0.552651,-0.45217 -1.055061,-1.1053 -0.552651,-0.65313 -0.602892,-1.30627 0,-0.70337 -0.401928,-1.40675 -0.452169,-0.85409 -1.256026,-1.75843 -0.753615,-0.90434 -1.406748,-1.60771 -0.50241,-0.55265 -0.954579,-1.00482 -0.452169,-0.45217 -0.803856,-0.95458 -0.301446,-0.50241 -0.50241,-1.05506 -0.200965,-0.6029 -0.200965,-1.40675 v -0.45217 q 0.100483,-0.25121 0.45217,-0.25121 0.401928,-0.0502 0.653133,-0.0502 0.452169,0 0.803856,0.25121 0.351687,0.20096 0.703374,0.45217 0.351687,0.2512 0.703374,0.55265 0.351687,0.2512 0.753615,0.30144 l 2.763256,0.35169 h 0.251205 1.306267 0.301446 l 1.657953,-0.10048 0.200964,-0.10048 h 2.009641 q 0.100482,0 0.50241,-0.25121 0.401928,-0.30144 0.653133,-0.30144 0.100482,0 0.200964,0.2512 0.100482,0.25121 0.150723,0.55265 0.100482,0.30145 0.150723,0.60289 0.05024,0.30145 0.05024,0.40193 0,0.0502 0,0.50241 0.05024,0.45217 0.05024,0.70338 v 0.0502 q 0,0.65313 -0.251205,0.95458 0,0.15072 -0.05024,0.65313 0,0.50241 -0.05024,0.65313 v 0.10049 0.10048 q 0.100482,0.10048 0.351687,0.55265 0.301446,0.45217 0.401928,0.60289 0.150723,0.25121 0.100482,0.50241 -0.05024,0.20096 0.05024,0.45217 0,0.0502 0.251205,0.2512 v 0.0503 q 0,0.20096 -0.05024,0.30144 -0.05024,0.10048 -0.05024,0.35169 0,1.00482 0.552651,1.60771 0.552652,0.60289 1.004821,1.40675 0,0.0502 0.05024,0.20096 v 0.0502 q 0,0.0503 -0.05024,0.15073 0,0.10048 0,0.15072 0,0.40193 0.05024,1.25603 0.100482,0.80385 0.351687,1.20578 0.150723,0.25121 0.401928,0.65313 0.301446,0.35169 0.301446,0.65314 0,0.20096 -0.05024,0.40193 0,0.15072 0,0.35168 0,0.50241 0.200964,1.00482 0.200964,0.45217 0.301446,0.95458 0.251205,0.8541 0.552651,2.05988 0.351687,1.15555 0.803856,2.00964 0.251205,0.45217 0.602893,0.8541 0.401928,0.40193 0.803856,0.80386 0.150723,0.20096 0.251205,0.40193 0.150723,0.20096 0.251205,0.40192 0.452169,0.55265 0.954579,1.15555 0.50241,0.60289 1.00482,1.15554 0.301446,0.30145 0.803857,0.80386 0.50241,0.50241 0.552651,0.50241 h 0.150723 q 0.05024,0 0.452169,-0.40193 0.401928,-0.40193 0.602892,-0.65314 0.401928,-0.40192 0.703374,-0.85409 0.301446,-0.50241 0.653133,-0.90434 0.653133,-0.8541 1.406749,-1.70819 0.753615,-0.8541 1.256025,-1.85892 0.200964,-0.40193 0.200964,-0.70338 0.05024,-0.30144 0.150723,-0.70337 0.05024,-0.25121 0.200964,-0.50241 0.150723,-0.30145 0.200964,-0.55265 0.05024,-0.10048 0.100482,-0.50241 0.100482,-0.40193 0.100482,-0.45217 0.05024,-0.10048 0.200964,-0.55265 0.150723,-0.45217 0.150723,-0.55265 0.100482,-0.55265 0,-1.35651 -0.100482,-0.80386 0.351687,-1.25603 l 1.356508,-1.3565 q 0.100482,-0.35169 0.351687,-0.8541 0.251205,-0.50241 0.251205,-0.90434 0,-0.35169 -0.150723,-0.80386 -0.100482,-0.45216 -0.100482,-0.80385 -0.05024,-0.35169 0.100482,-0.65313 0.200964,-0.35169 0.452169,-0.6029 0.251205,-0.30144 0.50241,-0.55265 0.301446,-0.2512 0.50241,-0.40193 0.301446,-0.40192 0.251205,-1.00482 -0.05024,-0.60289 0.100482,-1.1053 0.100482,-0.15072 0.200964,-0.45217 0.150723,-0.35168 0.150723,-0.45217 0.05024,-0.0502 0.200964,-0.15072 0.150723,-0.15072 0.150723,-0.20096 0.05024,-0.0502 0.05024,-0.20097 0.05024,-0.15072 0.05024,-0.2512 v -1.65796 q 0.150724,-0.40192 0.200965,-0.70337 0.100482,-0.35169 0.100482,-0.75362 0,-0.30144 -0.05024,-0.55265 -0.05024,-0.2512 -0.05024,-0.55265 0,-0.2512 0.150723,-0.2512 0.200964,-0.0502 0.401928,-0.0502 0.552651,0 1.00482,0.30144 0.452169,0.25121 1.00482,0.25121 0.251205,0 0.452169,-0.15073 0.251205,-0.20096 0.50241,-0.30144 0.351688,-0.10048 0.653134,-0.10048 0.351687,-0.0503 0.703374,-0.0503 0.653133,0 1.205784,0.30145 0.552651,0.30145 1.205784,0.30145 0.351687,0 0.602893,-0.15073 0.301446,-0.20096 0.602892,-0.30144 0.552651,-0.15073 1.055061,-0.25121 0.50241,-0.10048 1.055061,-0.2512 0.50241,-0.15073 0.954579,-0.30145 0.502411,-0.15072 1.055062,-0.15072 0.200964,0 0.200964,0.10048 0,0.0502 0,0.25121 v 0.2512 q -0.100482,0.15072 -0.301446,0.65313 -0.200964,0.45217 -0.301446,0.6029 -0.251205,0.40192 -0.401929,0.90433 -0.150723,0.45217 -0.50241,0.8541 -0.351687,0.40193 -0.653133,0.65313 -0.251205,0.20097 -0.50241,0.40193 -0.251205,0.20097 -0.452169,0.50241 -0.200964,0.30145 -0.401928,0.90434 v 0.20097 q -0.401928,0.70337 -1.00482,1.15554 -0.602893,0.40193 -0.854098,0.75361 -0.200964,0.30145 -0.251205,0.50241 -0.05024,0.15073 -0.100482,0.25121 -0.05024,0.10048 -0.200964,0.55265 -0.150723,0.40193 -0.150723,0.50241 -0.200964,0.40193 -0.552651,0.75362 -0.301446,0.30144 -0.452169,0.65313 -0.200964,0.55265 -0.401928,1.05506 -0.150723,0.50241 -0.452169,1.00482 -0.200964,0.25121 -0.50241,0.40193 -0.301446,0.15072 -0.50241,0.45217 0,0.0502 -0.05024,0.20096 0,0.15072 -0.05024,0.25121 -0.05024,1.05506 -0.100482,2.16036 -0.05024,1.1053 -1.00482,1.80868 -0.854097,0.60289 -1.456989,1.45699 l -0.150723,1.85891 q -0.251205,0.25121 -0.351687,0.70338 -0.100482,0.40193 -0.200964,0.80385 -0.251205,0.75362 -0.803857,1.40675 -0.50241,0.60289 -0.854097,1.30627 -0.05024,0.0502 -0.100482,0.2512 0,0.15073 0,0.20097 -0.251205,0.60289 -0.653133,1.20578 -0.401928,0.55265 -0.401928,1.25603 0,0.20096 0.100482,0.30144 0.100482,0.10049 0.100482,0.30145 0,0.35169 -0.301446,0.60289 -0.301446,0.20097 -0.653133,0.40193 -0.351687,0.15072 -0.653133,0.40193 -0.301446,0.20096 -0.301446,0.55265 0,0.2512 0.100482,0.45217 0.150723,0.20096 0.301446,0.40193 0.150723,0.20096 0.251205,0.45217 0.150723,0.2512 0.150723,0.65313 0,0.40193 -0.200964,0.65313 -0.150723,0.25121 -0.401928,0.45217 -0.200964,0.20096 -0.401929,0.40193 -0.150723,0.20096 -0.150723,0.50241 0,0.35169 0.100482,0.65313 0.100482,0.25121 0.100482,0.55265 -0.301446,0 -0.552651,-0.10048 -0.200964,-0.10048 -0.50241,-0.10048 h -0.452169 q -0.200964,0.20096 -0.351687,0.20096 -0.100482,0 -0.150723,-0.0502 -0.05024,-0.0502 -0.150723,-0.0502 -0.100482,0 -0.200964,0.0502 -0.05024,0.0502 -0.150723,0.0502 -0.602892,0 -1.055061,-0.40193 -0.401928,-0.40192 -1.004821,-0.40192 -0.351687,0 -0.753615,0.20096 -0.401928,0.15072 -0.803856,0.15072 h -0.05024 q -0.100482,-0.0502 -0.401928,-0.20096 -0.251205,-0.15072 -0.351687,-0.25121 -0.100482,-0.10048 -0.301446,-0.30144 -0.150723,-0.25121 -0.401928,-0.25121 h -1.155544 q -0.100482,0 -0.251205,0.20097 -0.100482,0.15072 -0.150723,0.20096 -0.05024,0 -0.301446,0.0502 -0.200964,0 -0.251205,0 l -0.150723,0.20097 q -0.150723,0.10048 -0.653133,0.2512 -0.452169,0.15072 -0.452169,0.20097 h -0.50241 q -0.502411,0 -0.95458,-0.15073 -0.452169,-0.15072 -0.904338,-0.15072 -0.200964,0 -0.452169,0.0502 -0.200964,0 -0.351687,0.15072 -0.100482,0.0502 -0.401928,0.35169 -0.251205,0.30145 -0.301446,0.35169 0,0 -0.100482,0.0502 -0.05024,0.0502 -0.100482,0.0502 -0.05024,0 -0.200964,0.10048 -0.150723,0.10048 -0.200964,0.15073 -0.251205,-0.20097 -0.351687,-0.50241 -0.100482,-0.35169 -0.100482,-0.6029 z" />
      <path
         id="path4630"
         style="font-style:normal;font-variant:normal;font-weight:normal;font-stretch:normal;font-family:'Lethargic BRK';-inkscape-font-specification:'Lethargic BRK';fill:#ff7f2a;fill-opacity:1"
         d="m 101.27092,276.61801 q -0.55265,-0.0502 -1.1053,-0.0502 -0.502415,0 -0.954584,0 h -1.909158 q -0.452169,0 -0.904338,0.0502 -0.401929,0.0502 -0.803857,0.0502 -0.301446,0 -0.703374,0 -0.401928,-0.0502 -0.653133,-0.30144 l -1.607712,-1.40675 q -0.452169,-0.15072 -0.703375,-0.55265 -0.602892,0.2512 -1.00482,0.65313 H 90.4691 q -0.50241,0 -0.854097,-0.20096 -0.301446,-0.20097 -0.552651,-0.45217 -0.251205,-0.30145 -0.552651,-0.55265 -0.251205,-0.30145 -0.653134,-0.50241 -0.251205,-0.10049 -0.703374,-0.20097 -0.401928,-0.15072 -0.552651,-0.40193 -0.401928,-0.75361 -0.602892,-1.25602 -0.150723,-0.55265 -0.351687,-1.30627 0,-0.0502 -0.05024,-0.10048 -0.05024,-0.0502 -0.05024,-0.10048 -0.200964,-0.25121 -0.251205,-0.60289 -0.05024,-0.35169 -0.05024,-0.70338 0,-0.40193 -0.05024,-0.75361 -0.05024,-0.35169 -0.251205,-0.65314 l -0.200964,-1.70819 q -0.200964,-0.25121 -0.301446,-0.70337 -0.05024,-0.45217 -0.05024,-0.75362 V 263.907 q 0,-0.0502 0.100482,-0.15073 0.150723,-0.10048 0.150723,-0.15072 0.05024,0 0,-0.15072 0,-0.15073 0,-0.20097 0.100482,-0.2512 0.301446,-0.50241 0.251205,-0.2512 0.251205,-0.65313 v -0.0502 q 0,-0.0502 -0.05024,-0.10048 -0.05024,-0.0502 -0.05024,-0.10049 0,-0.10048 -0.05024,-0.35168 -0.05024,-0.25121 -0.05024,-0.35169 l -0.150723,-0.15072 v -1.15555 q 0.150723,-0.15072 0.150723,-0.30144 v -0.25121 q 0.200964,-0.35168 0.50241,-0.70337 0.301446,-0.40193 0.301446,-0.80386 v -0.15072 q 0,-0.0502 -0.05024,-0.15072 -0.05024,-0.10049 -0.05024,-0.15073 0.05024,-0.0502 0.100482,-0.15072 0.05024,-0.15072 0.100482,-0.20096 v -1.15555 q 0.602892,-0.55265 1.105302,-1.1053 0.50241,-0.60289 1.105303,-1.15554 h 0.100482 q 0.150723,0 0.251205,0.0502 0.150723,0.0502 0.401928,0.0502 0.653133,0 0.954579,-0.35169 0.351687,-0.40193 0.602892,-0.80385 0.301446,-0.45217 0.653133,-0.80386 0.351687,-0.40193 1.055062,-0.40193 0.05024,0 0.200964,0.0502 0.150723,0 0.200964,0 0.100482,0.20097 0.703374,0.45217 0.602892,0.25121 0.753615,0.25121 0.452169,0 0.753615,-0.35169 0.301446,-0.40193 0.703374,-0.65313 0.904339,-0.55265 1.909159,-0.6029 1.055061,-0.0502 2.059881,0 0.401928,-0.15072 0.803859,-0.15072 0.45217,-0.0502 0.85409,-0.0502 h 0.95458 q 0.25121,0.15072 0.35169,0.20096 0.10048,0 0.35169,0 0.40193,0 0.80385,-0.10048 0.40193,-0.10048 0.80386,-0.10048 1.05506,0 1.75844,0.65313 0.70337,0.6029 1.55747,1.05507 0.15072,0 0.60289,0.0502 0.50241,0.0502 0.65313,0.0502 0.45217,0 1.05506,0.20096 0.65314,0.15072 1.25603,0.40193 0.65313,0.2512 1.20578,0.55265 0.55265,0.25121 0.80386,0.50241 0.10048,0.60289 0.20096,0.90434 0.15073,0.30144 0.30145,0.55265 0.20096,0.20096 0.40193,0.45217 0.2512,0.20096 0.60289,0.65313 0.20096,0.25121 0.35169,0.80386 0.20096,0.55265 0.30144,0.80385 -0.10048,0.10049 -0.10048,0.25121 v 0.0502 q 0,0.60289 0.25121,1.05506 0.2512,0.40193 0.55265,0.80386 0.35168,0.35169 0.60289,0.70337 0.2512,0.35169 0.2512,0.8541 0,0.60289 -0.35168,1.05506 -0.30145,0.45217 -0.45217,0.95458 -0.90434,0.40193 -1.20579,0.45217 -0.30144,0 -0.45217,-0.0502 -0.15072,-0.10048 -0.45216,-0.25121 -0.25121,-0.15072 -1.10531,-0.15072 h -2.00964 q -0.70337,0 -1.25602,0.45217 -0.55265,0.45217 -1.25603,0.45217 h -0.30144 q -0.0503,0 -0.25121,-0.10048 -0.20096,-0.15073 -0.2512,-0.15073 -1.00482,-0.2512 -1.90916,-0.20096 -0.90434,0.0502 -1.90916,0 -0.0502,0 -0.30145,0 -0.20096,-0.0502 -0.2512,-0.0502 0,-0.0502 -0.15073,-0.0502 h -0.20096 q -0.55265,0 -1.00482,0.20096 -0.40193,0.15072 -0.95458,0.10048 -1.004819,-0.10048 -1.808675,-0.55265 -0.753615,-0.50241 -1.758435,-0.50241 h -0.50241 q -0.05024,0.0502 -0.251205,0.20097 -0.150723,0.15072 -0.251205,0.20096 -1.256026,0.8541 -2.361328,1.80868 -1.105302,0.90433 -2.160364,2.00964 v 0.2512 q 0,0.45217 0.301447,0.8541 0.351687,0.35169 0.753615,0.70337 0.452169,0.30145 0.904338,0.6029 0.50241,0.2512 0.803856,0.45216 0.552651,0.40193 1.256025,0.95458 0.703375,0.50241 1.45699,0.95458 0.803856,0.45217 1.557471,0.80386 0.803856,0.30145 1.55747,0.30145 1.75844,0 3.16518,-0.80386 0.75362,-0.65313 1.45699,-1.25603 0.70338,-0.65313 1.40675,-1.30626 0.10048,-0.10048 0.45217,-0.20097 0.35169,-0.15072 0.75362,-0.2512 0.40192,-0.10048 0.75361,-0.15072 0.40193,-0.0503 0.55265,-0.0503 0.50241,0 0.90434,0.25121 0.40193,0.20096 0.8541,0.20096 0.30144,0 0.45217,-0.0502 0.15072,-0.0502 0.40193,-0.30144 l 1.75843,-1.75844 q 0.10048,-0.10048 0.25121,-0.10048 h 0.2512 q 0.60289,0 1.20579,0.20096 0.65313,0.20097 1.30626,0.25121 0.10048,0.10048 0.20097,0.2512 0.15072,0.15073 0.15072,0.25121 v 1.00482 q -0.25121,0.30144 -0.20097,0.70337 0.0503,0.35169 0,0.70338 l -0.0502,0.2512 q -0.0502,0.0502 -0.10048,0.20097 0,0.10048 0,0.15072 -0.35169,0.35169 -0.55265,0.60289 -0.20096,0.20097 -0.50241,0.45217 -0.2512,0.25121 -0.40193,0.55265 -0.15072,0.30145 -0.40193,0.45217 -1.15554,0.70337 -2.41156,1.20578 -0.35169,0.15073 -0.75362,0.20097 -0.35169,0.0502 -0.75361,0.15072 -0.40193,0.15072 -0.65314,0.35169 -0.2512,0.20096 -0.50241,0.35169 -0.2512,0.15072 -0.60289,0.30144 -0.30145,0.10048 -0.8541,0.10048 -0.2512,0 -0.65313,-0.0502 -0.35169,-0.0502 -0.60289,-0.15072 -0.0502,0 -0.25121,-0.10048 -0.15072,-0.15072 -0.20096,-0.15072 -0.25121,-0.0503 -0.30145,-0.0503 -0.35169,0 -0.55265,0.25121 -0.20096,0.20096 -0.35169,0.45217 -0.15072,0.2512 -0.35168,0.50241 -0.20097,0.20096 -0.55265,0.20096 h -1.35651 q -0.20097,0 -0.35169,-0.15072 -0.10048,-0.0502 -0.55265,-0.15072 -0.45217,-0.15073 -0.60289,-0.20097 z m -6.079165,-20.49833 q -0.351687,0.45217 -1.055061,0.80386 -0.703374,0.35168 -1.155543,0.75361 L 92.4285,258.2298 v 0.45217 q 0,0.0502 0.552651,0.65313 0.602892,0.55266 0.954579,0.8541 0.803856,0.70338 1.557471,1.25603 0.803857,0.55265 1.657954,1.20578 h 0.200964 q 1.055061,0 2.059881,-0.15072 0.60289,-0.10048 1.15554,-0.30145 0.55265,-0.2512 1.20579,-0.2512 0.70337,0 1.35651,0.2512 0.65313,0.20097 1.3565,0.20097 0.40193,0 0.90434,-0.50241 0.50241,-0.55266 0.8541,-0.8541 0.15072,-0.10048 0.45217,-0.40193 0.35168,-0.30145 0.45217,-0.35169 0.15072,-0.20096 0.70337,-0.70337 0.55265,-0.55265 0.70337,-0.75362 0.0503,-0.20096 0.10049,-0.2512 v -0.0502 -0.0502 q -0.75362,-0.80386 -1.60772,-1.45699 -0.85409,-0.65314 -1.70819,-1.35651 -0.10048,-0.10048 -0.40193,-0.40193 -0.30144,-0.30144 -0.55265,-0.40193 -0.55265,-0.20096 -1.15554,-0.35168 -0.60289,-0.15073 -1.15555,-0.35169 -0.40192,-0.15072 -0.95458,-0.35169 -0.55265,-0.20096 -1.00482,-0.20096 -0.401924,0 -0.803852,0.2512 -0.351687,0.20097 -0.753615,0.30145 -0.150723,0.0502 -0.552651,0.15072 -0.351687,0.10048 -0.452169,0.10048 -0.401928,0.25121 -0.703374,0.55266 -0.200964,0.10048 -0.854098,0.55265 -0.602892,0.45217 -0.803856,0.60289 z" />
      <path
         id="path4632"
         style="font-style:normal;font-variant:normal;font-weight:normal;font-stretch:normal;font-family:'Lethargic BRK';-inkscape-font-specification:'Lethargic BRK';fill:#ff7f2a;fill-opacity:1"
         d="m 125.031,275.91464 q -0.0502,0 -0.30145,0.0502 -0.20096,0 -0.45217,0.0502 -0.2512,0 -0.50241,0.0502 -0.20096,0 -0.2512,0 h -0.95458 q -0.55265,0.10048 -1.05506,0.35169 -0.45217,0.20096 -1.00482,0.2512 0,0.0502 -0.10049,0 -0.10048,-0.0502 -0.15072,-0.0502 -0.0502,0 -0.2512,0.0502 0,0.0502 -0.15073,0.0502 -0.10048,0 -0.15072,0 -0.35169,0 -0.8541,-0.0502 -0.45217,-0.0502 -0.45217,-0.55265 0,-0.40193 0.15073,-0.80385 0.20096,-0.45217 0.30144,-0.8541 0.0502,-0.20097 0.0502,-0.55265 0.0502,-0.35169 0.10049,-0.70338 0.10048,-0.40192 0.20096,-0.70337 0.15072,-0.35169 0.35169,-0.50241 0.0502,-0.65313 0.0502,-1.25603 0.0502,-0.65313 0.10048,-0.95458 0.10048,-0.35168 0.15072,-0.35168 0.0502,-0.0502 0.0502,-0.10048 0.30145,-0.40193 0.40193,-0.8541 0.10048,-0.50241 0.30145,-1.00482 0.20096,-0.40193 0.40193,-0.90434 0.2512,-0.55265 0.50241,-0.95458 v -0.0502 q -0.0502,-0.0502 -0.20097,-0.35169 0,-0.0502 0.0502,-0.15072 0.0502,-0.10048 0.0502,-0.15072 0,-0.0502 -0.15072,-0.25121 -0.10048,-0.20096 -0.10048,-0.2512 -0.10048,-0.25121 -0.10048,-0.55265 0,-0.35169 0,-0.55266 0,-0.30144 0.0502,-0.50241 0.0502,-0.2512 0.0502,-0.50241 0,-0.35168 -0.10048,-0.70337 -0.10049,-0.35169 -0.20097,-0.65313 -0.10048,-0.65314 -0.15072,-1.30627 0,-0.70337 -0.25121,-1.35651 -0.10048,-0.2512 -0.35168,-0.50241 -0.20097,-0.30144 -0.30145,-0.60289 -0.15072,-0.50241 -0.10048,-1.00482 0.0502,-0.50241 -0.0502,-0.95458 -0.0502,-0.0502 -0.20097,-0.35169 -0.20096,-0.55265 -0.15072,-1.20578 0.0502,-0.65313 -0.20096,-1.20578 -0.25121,-0.55266 -0.70338,-1.00483 -0.40192,-0.50241 -0.40192,-1.20578 0.80385,0 1.25602,0.50241 0.45217,0.50241 1.1053,0.8541 0.30145,0.15072 0.65314,0.10048 0.35168,-0.0502 0.65313,0.0502 0.40193,0.10048 0.75361,0.40193 0.35169,0.2512 0.75362,0.2512 0.10048,0 0.10048,-0.0502 l 0.15072,-0.0502 q 0.0502,0 0.10049,0.0502 0.0502,0 0.10048,0 0.10048,0.0502 0.35169,0.0502 0.2512,0 0.35168,0 0.25121,0 0.50241,0 0.30145,0 0.55265,-0.10048 0.25121,0 0.95458,0.0502 0.70338,0.0502 0.90434,0.10049 0.0502,0 0.30145,0.10048 0.2512,0.0502 0.50241,0.10048 0.2512,0.0502 0.50241,0.10048 0.2512,0.0502 0.30144,0.0502 h 0.0502 q 0.25121,0 0.40193,-0.0502 0.20097,-0.10048 0.45217,-0.10048 0.35169,0 0.65314,0.35169 0.30144,0.30144 0.55265,0.70337 0.30144,0.35169 0.55265,0.65313 0.2512,0.30145 0.50241,0.30145 0.15072,0 0.35168,-0.10048 0.25121,-0.15073 0.35169,-0.25121 0.15072,-0.10048 0.50241,-0.40193 0.40193,-0.30144 0.50241,-0.40192 l 1.20579,-1.20579 q 0.10048,-0.10048 0.45217,-0.35168 0.35168,-0.30145 0.45216,-0.35169 0.0503,-0.10048 0.30145,-0.40193 0.25121,-0.35169 0.30145,-0.40193 0.35168,-0.40193 0.85409,-0.60289 0.55265,-0.25121 1.10531,-0.35169 0.60289,-0.10048 1.20578,-0.10048 0.60289,0 1.1053,0 h 0.75362 q 0.15072,0.0502 0.45217,0.10048 0.30144,0 0.35168,0.15073 0,0.10048 0,0.30144 0.0503,0.20097 0.0503,0.25121 0,0.85409 -0.40193,1.65795 0,0.0502 -0.15073,0.25121 v 0.15072 q 0,0.70337 0.25121,1.30626 0.2512,0.6029 0.2512,1.30627 0,0.45217 -0.20096,0.90434 -0.15072,0.45217 -0.15072,1.00482 0,0.40193 0.15072,0.75361 0.15072,0.30145 0.15072,0.70338 0,0.15072 -0.30144,0.15072 -0.55265,0 -0.95458,-0.45217 -0.35169,-0.45217 -0.90434,-0.45217 -0.30145,0 -0.65313,0.10049 -0.30145,0.10048 -0.65314,0.10048 -0.70337,0 -1.25602,-0.35169 -0.50241,-0.35169 -1.20579,-0.35169 -0.70337,0 -1.40674,0.15073 -0.70338,0.10048 -1.35651,0.30144 -1.15555,0.90434 -2.36133,1.75844 -1.15554,0.80385 -2.31109,1.65795 -0.35168,0.25121 -0.30144,0.70338 0.0502,0.40192 -0.0502,0.75361 -0.15073,0.45217 -0.6029,0.80386 -0.45216,0.30144 -0.45216,0.75361 0,0.70338 0.0502,1.60771 0.0502,0.8541 0.30144,1.40675 0.20097,0.55265 0.50241,1.00482 0.35169,0.40193 0.60289,0.95458 0.10049,0.10048 0.10049,0.25121 0.15072,0.55265 0.35168,1.1053 0.25121,0.55265 0.35169,1.1053 0.10048,0.40193 0.0502,0.80386 0,0.35169 0.15072,0.70337 0.25121,0.60289 0.70338,1.20579 0.45217,0.60289 0.45217,1.25602 0,0.65314 -0.45217,0.95458 -0.45217,0.30145 -1.00482,0.30145 -0.70338,0 -1.25603,-0.40193 -0.55265,-0.40193 -1.20578,-0.50241 h -0.60289 q -0.0502,0 -0.30145,0 -0.20096,0 -0.45217,0 -0.2512,-0.0502 -0.50241,-0.0502 -0.20096,0 -0.2512,0 z" />
      <path
         id="path4634"
         style="font-style:normal;font-variant:normal;font-weight:normal;font-stretch:normal;font-family:'Lethargic BRK';-inkscape-font-specification:'Lethargic BRK';fill:#ff7f2a;fill-opacity:1"
         d="m 143.46238,276.66825 q 0,-0.50241 0.25121,-0.85409 0.30144,-0.35169 0.60289,-0.65314 0.35169,-0.30144 0.60289,-0.60289 0.30145,-0.30145 0.30145,-0.65313 v -2.31109 q 0.10048,-0.2512 0.10048,-0.50241 0,-0.2512 0,-0.45217 0.10048,-0.15072 0.30145,-0.60289 0.20096,-0.45217 0.30144,-0.55265 0.20097,-0.35169 0.45217,-0.75362 0.25121,-0.40192 0.25121,-0.80385 0,-0.15073 -0.0502,-0.25121 -0.0502,-0.10048 0,-0.15072 0.0502,-0.50241 0.15072,-0.80386 0.10048,-0.30144 0.10048,-0.80385 v -0.50241 q -0.10048,-0.20097 -0.50241,-0.8541 -0.35169,-0.70337 -0.50241,-0.80386 v -1.15554 q 0.10048,-0.10048 0.40193,-0.50241 0.30144,-0.45217 0.40193,-0.55265 0.0502,-0.0502 0.10048,-0.20097 v -1.05506 q -0.70338,-0.70337 -1.00482,-1.70819 -0.25121,-1.00482 -0.25121,-1.9594 0,-0.35169 0.15073,-0.65313 0.20096,-0.30145 0.20096,-0.65314 0,-0.2512 -0.10048,-0.60289 -0.10048,-0.35169 -0.30145,-0.50241 -0.0502,-0.45217 -0.10048,-0.8541 0,-0.45217 -0.20096,-0.85409 -0.10049,-0.20097 -0.35169,-0.65314 -0.25121,-0.50241 -0.25121,-0.65313 v -0.10048 q 0.30145,0 0.6029,0.15072 0.30144,0.15072 0.55265,0.30145 0.2512,0 0.90434,0.0502 0.70337,0.0502 0.95457,0.10048 0.55266,0.10048 0.95458,0.40193 0.45217,0.2512 1.00482,0.2512 0.50241,0 0.95458,-0.15072 0.50241,-0.20096 0.95458,-0.30145 0.75362,-0.10048 1.55747,-0.10048 0.8541,0 1.55748,0 0.10048,-0.0502 0.35168,-0.15072 0.30145,-0.10048 0.65314,-0.20097 0.35168,-0.10048 0.60289,-0.20096 0.30144,-0.10048 0.40193,-0.10048 v 0.90434 q -0.15073,0.10048 -0.15073,0.30144 0,0.15073 -0.10048,0.25121 -0.30145,0.45217 -0.90434,0.65313 -0.55265,0.20097 -0.55265,0.80386 0,0.50241 0.25121,0.90434 0.2512,0.35168 0.2512,1.05506 0,0.15072 -0.15072,0.65313 -0.10048,0.50241 -0.25121,1.1053 -0.15072,0.55265 -0.35168,1.05506 -0.15073,0.45217 -0.25121,0.55265 0,0.80386 -0.10048,1.60772 -0.0502,0.75361 -0.0502,1.50723 0,0.70337 0.40193,1.25602 0.40192,0.50241 0.40192,1.10531 0,0.10048 -0.0502,0.20096 -0.0502,0.0502 -0.0502,0.15072 0,0.20097 0.10048,0.20097 v 0.0502 q 0,0.30144 -0.2512,0.50241 -0.20096,0.20096 -0.50241,0.35168 -0.25121,0.15073 -0.50241,0.30145 -0.20096,0.15072 -0.20096,0.35169 0,0.35168 0.40192,0.75361 0.40193,0.35169 0.6029,0.6029 0.10048,0.15072 0.20096,0.45216 0.15072,0.30145 0.2512,0.65314 0.10049,0.30144 0.15073,0.60289 0.10048,0.30145 0.10048,0.40193 0,0.0502 -0.0502,0.10048 -0.0502,0.0502 -0.0502,0.10048 v 0.0502 q 0,0.60289 0.15072,1.40675 0.20096,0.80386 0.45217,1.60771 0.30145,0.80386 0.55265,1.60772 0.30145,0.75361 0.50241,1.30626 0.0502,0.0502 0.0502,0.20097 0,0.0502 0,0.15072 0,0.10048 -0.10048,0.10048 h -0.50241 q -0.75362,0 -1.40675,-0.35169 -0.65313,-0.40192 -1.35651,-0.60289 -0.45217,-0.15072 -1.00482,-0.20096 -0.55265,-0.10048 -1.00482,-0.10048 -0.2512,0 -0.20096,0 0.0502,0 -0.20096,0.10048 -0.20097,0.10048 -0.95458,0.40193 h -2.21061 q -0.50241,0.2512 -1.05506,0.45217 -0.55265,0.20096 -1.05506,0.30144 -0.10048,-0.10048 -0.20096,-0.10048 -0.10049,0 -0.20097,0.0502 -0.10048,0 -0.15072,0.0502 h -1.50723 q -0.15073,0 -0.20097,-0.15072 -0.0502,-0.15072 -0.0502,-0.25121 z m 0.45217,-32.30497 q 0,-0.65313 0.20097,-1.20578 0.2512,-0.55265 0.2512,-1.20579 0,-0.40192 -0.10048,-0.70337 -0.10048,-0.35169 -0.10048,-0.75362 v -0.80385 q 0,-0.10048 0.10048,-0.50241 0.15072,-0.45217 0.35169,-0.45217 h 0.85409 l 5.67724,0.55265 q 0.10048,0.0502 0.35168,0.10048 0.25121,0.0502 0.35169,0.0502 0.75362,0 1.50723,-0.20096 0.75362,-0.25121 1.50723,-0.25121 0.55265,0 0.95458,0.20097 0.40193,0.15072 0.95458,0.2512 0.0502,0 0.0502,0.0502 0,0.35169 -0.35169,0.6029 -0.30144,0.2512 -0.30144,0.65313 0,0.60289 0.35169,1.25602 0.35168,0.6029 0.35168,1.25603 v 0.0502 q 0,0.20096 -0.0502,0.55265 0,0.35169 -0.0502,0.35169 0,0.0502 -0.15072,0.2512 -0.0502,0.15073 -0.0502,0.45217 0,0.30145 -0.0502,0.6029 -0.0503,0.2512 -0.20097,0.50241 -0.10048,0.20096 -0.30144,0.20096 -0.10049,0 -0.45217,0.0502 -0.35169,0 -0.45217,0 -0.15073,0 -0.50241,0 -0.35169,-0.0502 -0.40193,-0.0502 -0.95458,-0.10048 -1.90916,-0.45217 -0.90434,-0.40193 -1.85892,-0.40193 -0.40192,0 -0.80385,0.20097 -0.35169,0.15072 -0.80386,0.2512 -0.10048,0 -0.35169,0.0502 -0.20096,0 -0.2512,0 h -1.25603 q -0.55265,0.10048 -1.05506,0.45217 -0.45217,0.30145 -1.00482,0.30145 -0.35169,0 -0.55265,-0.25121 -0.20096,-0.2512 -0.30145,-0.60289 -0.10048,-0.40193 -0.15072,-0.75361 0,-0.40193 0,-0.65314 z" />
      <path
         id="path4636"
         style="font-style:normal;font-variant:normal;font-weight:normal;font-stretch:normal;font-family:'Lethargic BRK';-inkscape-font-specification:'Lethargic BRK';fill:#ff7f2a;fill-opacity:1"
         d="m 159.84174,283.0991 q 0.10048,-0.10048 0.10048,-0.2512 v -0.10048 q 0,-0.0502 -0.0502,-0.20097 -0.0502,-0.10048 -0.0502,-0.15072 0,-0.55265 0.15072,-1.05506 0.20096,-0.50241 0.40193,-0.95458 v -0.10048 q 0.10048,-0.45217 0.10048,-0.90434 0.0502,-0.45217 0.2512,-0.8541 0,-0.20096 0.10049,-0.20096 0.2512,-0.35169 0.45217,-0.80386 0.2512,-0.45217 0.2512,-0.90434 0,-0.15072 -0.0502,-0.2512 -0.0502,-0.15073 -0.0502,-0.30145 0,-0.45217 0.2512,-0.90434 0.25121,-0.50241 0.35169,-0.90434 0.0502,-0.10048 0.0502,-0.40192 0.0502,-0.30145 0.0502,-0.40193 v -1.30627 -1.25602 q 0,-0.15073 -0.10048,-0.50241 -0.0502,-0.40193 -0.20096,-0.80386 -0.10049,-0.40193 -0.25121,-0.70337 -0.10048,-0.30145 -0.2512,-0.35169 0,-0.15072 0,-0.50241 0,-0.40193 -0.0502,-0.80386 0,-0.40193 -0.0503,-0.75361 0,-0.40193 0,-0.55265 v -0.40193 q 0,-0.40193 0.20097,-0.80386 0.2512,-0.40193 0.2512,-0.65313 0,-0.40193 -0.20096,-0.75362 -0.15072,-0.35168 -0.15072,-0.75361 0,-0.20097 0,-0.50241 0.0502,-0.35169 0.10048,-0.55265 0,-0.0502 0.10048,-0.25121 0.15072,-0.20096 0.15072,-0.2512 v -0.15073 q 0,-0.35168 -0.10048,-0.65313 -0.0502,-0.35169 -0.0502,-0.70337 l -0.30145,-0.25121 v -1.45699 q -0.10048,-0.10048 -0.30144,-0.35168 -0.15072,-0.30145 -0.20097,-0.40193 -0.20096,-0.40193 -0.50241,-0.80386 -0.2512,-0.45217 -0.40192,-0.80386 -0.15073,-0.40192 -0.20097,-0.85409 -0.0502,-0.45217 -0.2512,-0.8541 -0.25121,-0.55265 -0.75362,-1.35651 -0.45217,-0.80385 -0.55265,-1.3565 -0.0502,-0.35169 0.30145,-0.35169 0.45217,0 0.90434,0.15072 0.50241,0.10048 0.95457,0.10048 0.25121,0 0.35169,-0.0502 0.15072,-0.0502 0.35169,-0.0502 0.15072,0 0.50241,0.10048 0.40193,0.10049 0.80385,0.25121 0.40193,0.15072 0.75362,0.35169 0.35169,0.15072 0.45217,0.30144 h 0.45217 q 0.30144,0 0.55265,-0.0502 0.2512,-0.0502 0.50241,-0.0502 0.55265,0 1.05506,0.30145 0.55265,0.2512 1.1053,0.2512 0.0502,0 0.15073,0 0.10048,0 0.10048,-0.0502 0.70337,-0.15072 1.25602,-0.45217 0.6029,-0.30145 1.30627,-0.30145 0.0502,0 0.20096,0.0503 0.15073,0 0.25121,0 0.2512,0.10048 0.35169,0.40192 0.15072,0.30145 0.35168,0.50241 0.10049,0.15073 0.30145,0.40193 0.2512,0.25121 0.50241,0.55265 0.2512,0.25121 0.45217,0.45217 0.2512,0.20097 0.40193,0.20097 0.75361,-0.30145 1.30626,-0.75362 0.60289,-0.45217 1.30627,-0.8541 0.35169,-0.2512 0.60289,-0.30144 0.30145,-0.10048 0.70338,-0.25121 0.45216,-0.15072 0.90433,-0.55265 0.50241,-0.40193 1.05506,-0.40193 h 2.36133 q 0.15073,-0.10048 0.35169,-0.15072 0.2512,-0.10048 0.35169,-0.10048 h 0.0502 q 0.40193,0 0.70337,0.0502 0.35169,0.0502 0.75362,0 0.45217,0.2512 0.95458,0.50241 0.50241,0.20096 1.00482,0.40193 h 0.20096 l 0.8541,0.45217 q 0.2512,-0.10048 0.30144,0 0.10049,0.10048 0.35169,0.15072 0.25121,0.10048 0.55265,0.10048 0.30145,-0.0502 0.55265,0 0.20097,0 0.6029,0.20097 0.45216,0.20096 0.90433,0.45217 0.50241,0.2512 0.90434,0.50241 0.40193,0.2512 0.55265,0.35168 0,0.0502 0.15073,0.10048 0.30144,0.10049 0.40192,0.30145 0.15073,0.15072 0.40193,0.40193 0.10048,0.15072 0.55265,0.60289 0.45217,0.45217 0.6029,0.55265 0.30144,0.50241 0.40192,0.90434 0.10049,0.40193 0.10049,0.95458 0,0.2512 -0.10049,0.55265 -0.0502,0.25121 -0.0502,0.55265 0,0.40193 0.15073,0.75362 0.15072,0.30144 0.30144,0.70337 0.25121,0.70338 0.35169,1.45699 0.15072,0.75362 0.15072,1.50723 v 0.55265 q -0.20096,0.35169 -0.35169,0.80386 -0.10048,0.45217 -0.15072,0.80385 0,0.0503 0,0.30145 0,0.20096 0,0.45217 0,0.20096 0,0.40193 0,0.20096 0,0.2512 0,0.10048 -0.10048,0.35169 -0.10048,0.20096 -0.20096,0.50241 -0.0503,0.25121 -0.15073,0.50241 -0.10048,0.20096 -0.10048,0.25121 v 1.95939 q 0,0.40193 -0.2512,0.65314 -0.20097,0.2512 -0.50241,0.45217 -0.30145,0.20096 -0.55266,0.40193 -0.2512,0.20096 -0.35168,0.45216 -0.0502,0 -0.0502,0.20097 0.0502,0.15072 0.0502,0.20096 -0.0502,0.10048 -0.10048,0.35169 0,0.20096 0,0.30145 -0.35169,0.45216 -0.90434,1.00482 -0.55265,0.55265 -1.20579,0.55265 -0.0502,0 -0.15072,0 -0.10048,-0.0502 -0.15072,-0.0502 h -0.0502 q -0.40193,0 -0.80386,0.2512 -0.35169,0.20096 -0.65313,0.45217 l -0.35169,0.35169 q -0.0502,0 -0.45217,0.10048 -0.35169,0.0502 -0.40193,0.0502 -0.0502,0 -0.10048,0.0502 -0.0502,0.0502 -0.10048,0.0502 -0.10048,0 -0.55265,0.0502 -0.45217,0 -0.6029,0.0502 -0.45216,0.10049 -0.70337,0.35169 -0.2512,0.20097 -0.80386,0.20097 -0.2512,0 -0.70337,-0.10049 -0.45217,-0.15072 -0.60289,-0.10048 -0.0502,0 -0.25121,0.15072 -0.40193,0.15073 -0.85409,0.20097 -0.40193,0 -0.80386,0 -1.15554,0 -2.46181,-0.40193 -1.25603,-0.45217 -2.16036,-1.20578 -0.25121,-0.20097 -0.6029,-0.6029 -0.35168,-0.40192 -0.75361,-0.75361 -0.35169,-0.40193 -0.80386,-0.65313 -0.40193,-0.30145 -0.80385,-0.30145 h -0.0502 q -0.10049,0.10048 -0.50241,0.35169 -0.40193,0.20096 -0.50241,0.30144 -0.95458,0.70338 -1.90916,1.50723 -0.95458,0.75362 -1.80868,1.65796 0,0.0502 -0.0502,0.10048 0,0.0502 0,0.10048 -0.0502,0.0502 -0.0502,0.25121 0,0.20096 0,0.2512 0,0.25121 0,0.50241 0,0.30145 0.10048,0.55265 0.15072,0.40193 0.40193,0.70338 0.2512,0.35168 0.50241,0.65313 0.30144,0.35169 0.50241,0.65313 0.20096,0.35169 0.20096,0.80386 0,0.30144 -0.15072,0.55265 -0.10048,0.2512 -0.10048,0.60289 0,0.40193 0.2512,0.80386 0.30145,0.40193 0.45217,0.80385 0,0.10049 0,0.30145 0.0502,0.25121 0.10048,0.35169 0.10049,0.55265 0.25121,1.05506 0.20096,0.55265 0.45217,1.05506 v 0.40193 q -0.55265,0 -1.1053,-0.20097 -0.50241,-0.20096 -0.80386,-0.2512 -0.25121,-0.0502 -0.35169,0 -0.10048,0.0502 -0.15072,0.0502 -0.55265,0 -1.20578,-0.20096 -0.6029,-0.20097 -1.10531,-0.40193 -0.35168,-0.20097 -0.55265,-0.35169 -0.20096,-0.10048 -0.60289,-0.10048 h -0.40193 q -0.55265,0.45217 -0.8541,0.70337 -0.30144,0.25121 -1.00482,0.25121 h -1.85891 q -0.35169,0.2512 -0.8541,0.35168 -0.45217,0.10049 -0.8541,0.10049 0,-1.15555 0.35169,-2.11013 0.40193,-0.90433 0.35169,-2.05988 z m 7.78735,-17.58435 q 0.25121,0.65313 0.75362,1.20578 0.55265,0.50241 0.95458,1.05506 0.10048,0.25121 0.20096,0.50241 0.15072,0.25121 0.30145,0.50241 0.10048,0.0503 0.2512,0.25121 0.15073,0.15072 0.20097,0.20096 0.55265,0.40193 1.05506,0.70338 0.55265,0.30144 1.05506,0.70337 0.8541,0.55265 1.60771,1.15555 0.75362,0.60289 1.60771,1.15554 0.10049,0.10048 0.10049,0.10048 0.0502,-0.0502 0.20096,-0.0502 0.8541,0 1.65795,0.0502 0.80386,0 1.55748,-0.30145 0.10048,0 0.2512,-0.0502 0.20096,-0.10048 0.30145,-0.10048 0.0502,-0.0502 0.20096,-0.0502 0.20096,-0.0502 0.25121,-0.0502 0.0502,-0.0502 0.2512,-0.25121 0.20096,-0.2512 0.25121,-0.30144 0.45216,-0.40193 0.95457,-0.75362 0.50241,-0.35168 1.00482,-0.75361 0.50242,-0.35169 1.05507,-0.65314 0.55265,-0.30144 0.90433,-0.85409 l 0.15073,-0.40193 q 0.10048,-0.15072 0.20096,-0.40193 0.15072,-0.30144 0.15072,-0.35169 0.35169,-0.50241 0.8541,-0.80385 0.50241,-0.30145 0.75362,-0.8541 v -0.65313 q 0,-0.65314 -0.15073,-1.15555 -0.15072,-0.55265 -0.20096,-1.20578 0,-0.15072 0,-0.70337 0,-0.6029 0.0502,-0.80386 v -0.25121 q 0,-0.60289 -0.50241,-1.25602 -0.50241,-0.65313 -1.25602,-1.25603 -0.70338,-0.60289 -1.45699,-1.1053 -0.70338,-0.55265 -1.15555,-0.90434 -0.35168,-0.2512 -0.75361,-0.60289 -0.35169,-0.35169 -0.80386,-0.65313 -0.40193,-0.35169 -0.8541,-0.55265 -0.40192,-0.25121 -0.85409,-0.25121 -0.10049,0 -0.20097,0 -0.10048,0 -0.10048,0.0502 -0.0502,0 -0.30145,0.0502 -0.20096,0 -0.50241,0.0502 -0.2512,0 -0.50241,0.0502 -0.2512,0 -0.30144,0 -0.40193,0.0502 -0.55265,0 -0.10048,-0.0502 -0.40193,0.10048 -1.1053,0.50241 -1.9594,1.1053 -0.8541,0.60289 -1.85892,1.25603 -0.15072,0.15072 -0.60289,0.45216 -0.40193,0.25121 -0.90434,0.6029 -0.50241,0.30144 -0.95458,0.60289 -0.40193,0.30144 -0.55265,0.40193 -0.15072,0.15072 -0.50241,0.50241 -0.30144,0.30144 -0.20096,0.55265 -0.10048,0.15072 -0.30145,0.65313 -0.20096,0.50241 -0.30144,0.65313 -0.10049,0.20097 -0.10049,0.40193 v 0.15073 q 0,0.15072 0.0502,0.65313 0.0503,0.45217 0.0503,0.60289 l 0.10048,0.15072 v 0.0503 q 0,0.2512 -0.10048,0.50241 -0.10049,0.2512 -0.10049,0.55265 v 0.60289 z" />
      <path
         id="path4638"
         style="font-style:normal;font-variant:normal;font-weight:normal;font-stretch:normal;font-family:'Lethargic BRK';-inkscape-font-specification:'Lethargic BRK';fill:#ff7f2a;fill-opacity:1"
         d="m 212.35066,276.61801 q -0.55265,-0.0502 -1.10531,-0.0502 -0.50241,0 -0.95458,0 h -1.90915 q -0.45217,0 -0.90434,0.0502 -0.40193,0.0502 -0.80386,0.0502 -0.30144,0 -0.70337,0 -0.40193,-0.0502 -0.65314,-0.30144 l -1.60771,-1.40675 q -0.45217,-0.15072 -0.70337,-0.55265 -0.60289,0.2512 -1.00482,0.65313 h -0.45217 q -0.50241,0 -0.8541,-0.20096 -0.30144,-0.20097 -0.55265,-0.45217 -0.2512,-0.30145 -0.55265,-0.55265 -0.25121,-0.30145 -0.65313,-0.50241 -0.25121,-0.10049 -0.70338,-0.20097 -0.40193,-0.15072 -0.55265,-0.40193 -0.40193,-0.75361 -0.60289,-1.25602 -0.15072,-0.55265 -0.35169,-1.30627 0,-0.0502 -0.0502,-0.10048 -0.0502,-0.0502 -0.0502,-0.10048 -0.20096,-0.25121 -0.25121,-0.60289 -0.0502,-0.35169 -0.0502,-0.70338 0,-0.40193 -0.0502,-0.75361 -0.0502,-0.35169 -0.2512,-0.65314 l -0.20097,-1.70819 q -0.20096,-0.25121 -0.30144,-0.70337 -0.0502,-0.45217 -0.0502,-0.75362 V 263.907 q 0,-0.0502 0.10048,-0.15073 0.15072,-0.10048 0.15072,-0.15072 0.0502,0 0,-0.15072 0,-0.15073 0,-0.20097 0.10048,-0.2512 0.30145,-0.50241 0.2512,-0.2512 0.2512,-0.65313 v -0.0502 q 0,-0.0502 -0.0502,-0.10048 -0.0502,-0.0502 -0.0502,-0.10049 0,-0.10048 -0.0502,-0.35168 -0.0502,-0.25121 -0.0502,-0.35169 l -0.15072,-0.15072 v -1.15555 q 0.15072,-0.15072 0.15072,-0.30144 v -0.25121 q 0.20096,-0.35168 0.50241,-0.70337 0.30144,-0.40193 0.30144,-0.80386 v -0.15072 q 0,-0.0502 -0.0502,-0.15072 -0.0502,-0.10049 -0.0502,-0.15073 0.0502,-0.0502 0.10048,-0.15072 0.0503,-0.15072 0.10049,-0.20096 v -1.15555 q 0.60289,-0.55265 1.1053,-1.1053 0.50241,-0.60289 1.1053,-1.15554 h 0.10048 q 0.15073,0 0.25121,0.0502 0.15072,0.0502 0.40193,0.0502 0.65313,0 0.95458,-0.35169 0.35168,-0.40193 0.60289,-0.80385 0.30144,-0.45217 0.65313,-0.80386 0.35169,-0.40193 1.05506,-0.40193 0.0502,0 0.20097,0.0502 0.15072,0 0.20096,0 0.10048,0.20097 0.70337,0.45217 0.6029,0.25121 0.75362,0.25121 0.45217,0 0.75361,-0.35169 0.30145,-0.40193 0.70338,-0.65313 0.90434,-0.55265 1.90916,-0.6029 1.05506,-0.0502 2.05988,0 0.40193,-0.15072 0.80386,-0.15072 0.45216,-0.0502 0.85409,-0.0502 h 0.95458 q 0.25121,0.15072 0.35169,0.20096 0.10048,0 0.35169,0 0.40192,0 0.80385,-0.10048 0.40193,-0.10048 0.80386,-0.10048 1.05506,0 1.75843,0.65313 0.70338,0.6029 1.55748,1.05507 0.15072,0 0.60289,0.0502 0.50241,0.0502 0.65313,0.0502 0.45217,0 1.05506,0.20096 0.65313,0.15072 1.25603,0.40193 0.65313,0.2512 1.20578,0.55265 0.55265,0.25121 0.80386,0.50241 0.10048,0.60289 0.20096,0.90434 0.15072,0.30144 0.30145,0.55265 0.20096,0.20096 0.40193,0.45217 0.2512,0.20096 0.60289,0.65313 0.20096,0.25121 0.35168,0.80386 0.20097,0.55265 0.30145,0.80385 -0.10048,0.10049 -0.10048,0.25121 v 0.0502 q 0,0.60289 0.2512,1.05506 0.25121,0.40193 0.55266,0.80386 0.35168,0.35169 0.60289,0.70337 0.2512,0.35169 0.2512,0.8541 0,0.60289 -0.35168,1.05506 -0.30145,0.45217 -0.45217,0.95458 -0.90434,0.40193 -1.20579,0.45217 -0.30144,0 -0.45217,-0.0502 -0.15072,-0.10048 -0.45217,-0.25121 -0.2512,-0.15072 -1.1053,-0.15072 h -2.00964 q -0.70337,0 -1.25602,0.45217 -0.55266,0.45217 -1.25603,0.45217 h -0.30145 q -0.0502,0 -0.2512,-0.10048 -0.20096,-0.15073 -0.25121,-0.15073 -1.00482,-0.2512 -1.90915,-0.20096 -0.90434,0.0502 -1.90916,0 -0.0502,0 -0.30145,0 -0.20096,-0.0502 -0.2512,-0.0502 0,-0.0502 -0.15073,-0.0502 h -0.20096 q -0.55265,0 -1.00482,0.20096 -0.40193,0.15072 -0.95458,0.10048 -1.00482,-0.10048 -1.80868,-0.55265 -0.75361,-0.50241 -1.75843,-0.50241 h -0.50241 q -0.0502,0.0502 -0.25121,0.20097 -0.15072,0.15072 -0.2512,0.20096 -1.25603,0.8541 -2.36133,1.80868 -1.1053,0.90433 -2.16036,2.00964 v 0.2512 q 0,0.45217 0.30144,0.8541 0.35169,0.35169 0.75362,0.70337 0.45217,0.30145 0.90434,0.6029 0.50241,0.2512 0.80385,0.45216 0.55265,0.40193 1.25603,0.95458 0.70337,0.50241 1.45699,0.95458 0.80385,0.45217 1.55747,0.80386 0.80385,0.30145 1.55747,0.30145 1.75843,0 3.16518,-0.80386 0.75362,-0.65313 1.45699,-1.25603 0.70338,-0.65313 1.40675,-1.30626 0.10048,-0.10048 0.45217,-0.20097 0.35169,-0.15072 0.75362,-0.2512 0.40192,-0.10048 0.75361,-0.15072 0.40193,-0.0503 0.55265,-0.0503 0.50241,0 0.90434,0.25121 0.40193,0.20096 0.8541,0.20096 0.30144,0 0.45217,-0.0502 0.15072,-0.0502 0.40192,-0.30144 l 1.75844,-1.75844 q 0.10048,-0.10048 0.2512,-0.10048 h 0.25121 q 0.60289,0 1.20578,0.20096 0.65314,0.20097 1.30627,0.25121 0.10048,0.10048 0.20096,0.2512 0.15073,0.15073 0.15073,0.25121 v 1.00482 q -0.25121,0.30144 -0.20097,0.70337 0.0502,0.35169 0,0.70338 l -0.0502,0.2512 q -0.0502,0.0502 -0.10048,0.20097 0,0.10048 0,0.15072 -0.35169,0.35169 -0.55265,0.60289 -0.20096,0.20097 -0.50241,0.45217 -0.25121,0.25121 -0.40193,0.55265 -0.15072,0.30145 -0.40193,0.45217 -1.15554,0.70337 -2.41157,1.20578 -0.35168,0.15073 -0.75361,0.20097 -0.35169,0.0502 -0.75362,0.15072 -0.40192,0.15072 -0.65313,0.35169 -0.2512,0.20096 -0.50241,0.35169 -0.2512,0.15072 -0.60289,0.30144 -0.30145,0.10048 -0.8541,0.10048 -0.2512,0 -0.65313,-0.0502 -0.35169,-0.0502 -0.60289,-0.15072 -0.0503,0 -0.25121,-0.10048 -0.15072,-0.15072 -0.20096,-0.15072 -0.25121,-0.0503 -0.30145,-0.0503 -0.35169,0 -0.55265,0.25121 -0.20096,0.20096 -0.35169,0.45217 -0.15072,0.2512 -0.35168,0.50241 -0.20097,0.20096 -0.55266,0.20096 h -1.3565 q -0.20097,0 -0.35169,-0.15072 -0.10048,-0.0502 -0.55265,-0.15072 -0.45217,-0.15073 -0.60289,-0.20097 z m -6.07917,-20.49833 q -0.35168,0.45217 -1.05506,0.80386 -0.70337,0.35168 -1.15554,0.75361 l -0.55265,0.55265 v 0.45217 q 0,0.0502 0.55265,0.65313 0.60289,0.55266 0.95458,0.8541 0.80385,0.70338 1.55747,1.25603 0.80386,0.55265 1.65795,1.20578 h 0.20097 q 1.05506,0 2.05988,-0.15072 0.60289,-0.10048 1.15554,-0.30145 0.55265,-0.2512 1.20579,-0.2512 0.70337,0 1.3565,0.2512 0.65314,0.20097 1.35651,0.20097 0.40193,0 0.90434,-0.50241 0.50241,-0.55266 0.8541,-0.8541 0.15072,-0.10048 0.45217,-0.40193 0.35168,-0.30145 0.45216,-0.35169 0.15073,-0.20096 0.70338,-0.70337 0.55265,-0.55265 0.70337,-0.75362 0.0502,-0.20096 0.10049,-0.2512 v -0.0502 -0.0502 q -0.75362,-0.80386 -1.60772,-1.45699 -0.85409,-0.65314 -1.70819,-1.35651 -0.10048,-0.10048 -0.40193,-0.40193 -0.30145,-0.30144 -0.55265,-0.40193 -0.55265,-0.20096 -1.15554,-0.35168 -0.6029,-0.15073 -1.15555,-0.35169 -0.40193,-0.15072 -0.95458,-0.35169 -0.55265,-0.20096 -1.00482,-0.20096 -0.40192,0 -0.80385,0.2512 -0.35169,0.20097 -0.75362,0.30145 -0.15072,0.0502 -0.55265,0.15072 -0.35169,0.10048 -0.45217,0.10048 -0.40193,0.25121 -0.70337,0.55266 -0.20097,0.10048 -0.8541,0.55265 -0.60289,0.45217 -0.80386,0.60289 z" />
      <path
         id="path4640"
         style="font-style:normal;font-variant:normal;font-weight:normal;font-stretch:normal;font-family:'Lethargic BRK';-inkscape-font-specification:'Lethargic BRK';fill:#ff7f2a;fill-opacity:1"
         d="m 263.34137,276.86922 q -0.10048,-0.10048 -0.40193,-0.35169 -0.30145,-0.2512 -0.65313,-0.50241 -0.35169,-0.2512 -0.65314,-0.50241 -0.30144,-0.25121 -0.40192,-0.35169 -0.20097,-0.15072 -0.20097,-0.15072 0.0502,-0.0502 -0.20096,-0.0502 -0.0502,0 -0.20097,0.0502 l -1.00482,0.95458 h -0.75361 q -0.10048,-0.20096 -0.30145,-0.25121 -0.20096,-0.10048 -0.45217,-0.15072 -0.20096,-0.0502 -0.45217,-0.10048 -0.20096,-0.10048 -0.30144,-0.30145 h -0.75362 -0.75361 q -0.10048,0 -0.45217,0.10048 -0.30145,0.10049 -0.35169,0.10049 -0.0502,0 -0.2512,-0.10049 -0.15073,0 -0.70338,-0.0502 -0.50241,-0.0502 -0.65313,-0.0502 -0.15072,-0.10048 -0.50241,-0.50241 -0.30145,-0.40193 -0.65313,-0.80385 -0.30145,-0.45217 -0.6029,-0.80386 -0.30144,-0.35169 -0.45217,-0.35169 -0.0502,0.10049 -0.2512,0.40193 -0.20097,0.25121 -0.40193,0.60289 -0.20096,0.30145 -0.40193,0.55265 -0.20096,0.25121 -0.2512,0.30145 -0.25121,0.15072 -0.65314,0.20096 -0.35168,0.0503 -0.60289,0.0503 -0.15072,0 -0.2512,-0.0503 -0.10048,-0.0502 -0.30145,-0.0502 -0.40193,0 -0.65313,0.30145 -0.25121,0.30145 -0.55265,0.70337 -0.25121,0.35169 -0.65314,0.65314 -0.35168,0.30144 -0.95458,0.30144 -1.3565,0 -2.71301,-0.20096 -1.30627,-0.25121 -2.61253,-0.25121 -0.25121,0 -0.60289,0 -0.30145,0 -0.50242,0.20097 h -1.00482 q -0.30144,-0.25121 -0.70337,-0.20097 -0.35169,0.0503 -0.80386,-0.35168 -0.10048,-0.10048 -0.20096,-0.20097 -0.10048,-0.15072 -0.30145,-0.0502 -0.2512,-0.45217 -0.55265,-0.60289 -0.2512,-0.15072 -0.50241,-0.55265 -0.55265,-0.35169 -0.95458,-0.45217 -0.35168,-0.10048 -0.90433,-0.15072 -0.20097,-0.0502 -0.6029,-0.0502 -0.35168,-0.0503 -0.40192,-0.0503 -0.25121,-0.0502 -0.30145,-0.2512 0,-0.20096 -0.10048,-0.35169 -0.0502,-0.0502 -0.20097,-0.20096 -0.15072,-0.20097 -0.20096,-0.25121 -0.30145,-0.50241 -0.30145,-1.3565 0,-0.90434 -0.30144,-1.55748 -0.35169,-0.75361 -0.65314,-1.30626 -0.30144,-0.55265 -0.30144,-1.30627 0,-0.55265 0.10048,-1.1053 0.15072,-0.55265 0.15072,-1.1053 0,-0.45217 -0.10048,-0.8541 -0.0502,-0.45217 -0.0502,-0.95458 -0.0502,-0.0502 -0.15072,-0.30145 -0.0502,-0.30144 -0.15073,-0.65313 -0.10048,-0.35169 -0.20096,-0.65313 -0.0502,-0.35169 -0.0502,-0.50241 0,-0.60289 0.30144,-1.1053 0.35169,-0.50241 0.70338,-1.00482 0.40193,-0.50241 0.70337,-0.95458 0.35169,-0.50241 0.35169,-1.10531 0,-0.40192 -0.15072,-0.75361 -0.15073,-0.35169 -0.30145,-0.75362 0.10048,-0.15072 0.55265,-0.60289 0.45217,-0.45217 0.60289,-0.55265 0.15073,-0.20096 0.35169,-0.20096 0.10048,0 0.40193,0.20096 0.15072,-0.15072 0.50241,-0.60289 0.40193,-0.45217 0.80386,-0.90434 0.45216,-0.50241 0.75361,-0.90434 0.35169,-0.40193 0.45217,-0.40193 0.25121,0 0.70337,0.35169 0.50241,0.35169 0.90434,0.35169 0.35169,0 0.50241,-0.25121 0.20097,-0.30144 0.45217,-0.45217 0.0502,-0.0502 0.20097,-0.0502 0.20096,-0.0502 0.2512,-0.0502 0.25121,-0.10048 0.50241,-0.2512 0.25121,-0.15073 0.55265,-0.20097 0.40193,-0.10048 0.75362,-0.10048 0.35168,-0.0502 0.75361,-0.15072 h 0.0502 q 0.10049,0 0.25121,0.10048 0.15072,0.0502 0.20096,0.0502 0.75362,-0.10048 1.20579,-0.10048 0.50241,-0.0502 1.20578,-0.0502 0.60289,0 1.00482,0.20096 0.45217,0.15072 1.00482,0.40193 0.10048,0.0502 0.25121,0.10048 0.20096,0.0502 0.30144,0.10048 0.15073,0.0502 0.70338,0.15073 0.60289,0.0502 0.80385,0.10048 0.15073,0.2512 0.45217,0.40193 0.35169,0.15072 0.60289,0.40193 0.55266,0.50241 1.05507,1.05506 0.50241,0.55265 1.05506,1.05506 h 0.0502 q 0.10048,0 0.80385,-0.50241 0.70338,-0.50241 1.50723,-1.1053 0.8541,-0.6029 1.50723,-1.10531 0.70338,-0.55265 0.75362,-0.65313 0.25121,-0.40193 0.25121,-0.95458 0,-0.8541 -0.35169,-1.45699 -0.35169,-0.60289 -0.60289,-1.40675 -0.10049,-0.2512 -0.10049,-0.55265 0.0502,-0.30144 0,-0.55265 -0.10048,-0.35169 -0.30144,-0.70337 -0.15073,-0.35169 -0.35169,-0.65314 -0.10048,-0.15072 -0.45217,-0.70337 -0.30144,-0.60289 -0.40193,-0.80386 0,-0.0502 -0.0502,-0.20096 -0.0502,-0.15072 -0.0502,-0.25121 -0.10048,-0.65313 -0.15072,-1.1053 0,-0.50241 -0.20097,-1.1053 -0.15072,-0.40193 -0.30144,-0.80386 -0.15072,-0.40193 -0.15072,-0.85409 0,-0.45217 0.0502,-0.45217 0.0502,-0.0502 0.0502,-0.10049 h 0.0502 q 0.40193,0 0.95458,0.20097 0.60289,0.20096 0.95458,0.45217 0.2512,0.15072 0.60289,0.45217 0.35169,0.2512 0.60289,0.2512 0.55265,0 0.95458,-0.45217 0.40193,-0.45217 1.25603,-0.45217 0.60289,0 1.25602,0.45217 0.65313,0.45217 1.25603,0.45217 0.55265,0 1.45699,-0.15072 0.90433,-0.20097 1.45698,-0.45217 0.25121,-0.15072 0.50242,-0.30145 0.30144,-0.15072 0.60289,-0.15072 0.15072,0 0.2512,0 0.15073,0 0.15073,0.15072 0,0.55265 -0.30145,1.00482 -0.25121,0.45217 -0.35169,0.95458 l 0.10048,0.15073 v 0.10048 q 0,0.55265 -0.20096,1.25602 -0.20096,0.70338 -0.30145,1.25603 -0.0502,0 -0.10048,0.15072 -0.0502,0.10048 -0.15072,0.30145 -0.0502,0.20096 -0.0502,0.2512 0,0.15073 0.10048,0.25121 -0.0502,0.10048 -0.15072,0.40193 -0.10049,0.30144 -0.10049,0.40192 -0.20096,0.70338 -0.55265,1.35651 -0.30144,0.60289 -0.50241,1.30627 0.0502,0.10048 0.0502,0.20096 0.0503,0.0502 0.0503,0.15073 0,0.35168 -0.10049,0.55265 -0.0502,0.15072 0,0.55265 -0.35168,0.2512 -0.40192,0.75361 -0.0503,0.50241 -0.0503,0.90434 0,0.25121 0.0503,0.40193 0.0502,0.10048 0.0502,0.30145 0,0.30144 -0.10049,0.40192 v 1.85892 q 0.10049,0.15072 0.20097,0.50241 0.15072,0.30145 0.15072,0.45217 0,0.2512 -0.10048,0.35169 v 0.75361 q 0,0.35169 0,0.80386 0,0.40193 0.20096,0.75361 v 1.50723 q 0,0.35169 -0.30144,0.65314 -0.25121,0.30144 -0.25121,0.75361 0,0.20097 0,0.35169 0.0502,0.15072 0.25121,0.30145 v 1.55747 q -0.10048,0.15072 -0.10048,0.35168 0,0.20097 0,0.35169 0,0.60289 0.15072,1.20579 0.15072,0.55265 0.2512,1.1053 0.0502,0.60289 0.10049,1.15554 0.0502,0.50241 0.40192,1.05506 l 0.30145,1.9594 q 0.15072,0.15072 0.2512,0.50241 0.15073,0.30145 0.25121,0.70338 0.10048,0.35168 0.15072,0.70337 0.10049,0.35169 0.10049,0.55265 0,0.20097 -0.0503,0.40193 -0.0502,0.15072 -0.0502,0.35169 0,0.40192 0.20097,0.80385 0.20096,0.35169 0.40193,0.75362 0.2512,0.40193 0.45216,0.80385 0.20097,0.40193 0.20097,0.8541 0.0502,0.40193 -0.10048,0.50241 -0.10049,0.0502 -0.45217,0.0502 h -0.0502 q -0.10049,-0.0502 -0.40193,-0.10048 -0.25121,-0.0502 -0.30145,-0.10048 -0.0502,0 -0.10048,0 -0.0502,-0.0502 -0.10048,-0.0502 z m -26.52726,-12.91194 q 0,0.35168 0.10049,0.60289 0.15072,0.2512 0.2512,0.55265 0.25121,0.50241 0.35169,1.1053 0.10048,0.60289 0.20096,1.15555 0,0.10048 0.15072,0.30144 0.15073,0.20097 0.20097,0.25121 0.10048,0.0502 0.50241,0.35168 0.45217,0.30145 0.55265,0.35169 0.70337,0.50241 1.35651,1.00482 0.70337,0.50241 1.40675,1.00482 0.55265,0.45217 1.20578,1.00482 0.70337,0.55265 1.40675,0.80386 0.65313,0.15072 1.1053,0.15072 0.8541,0 1.90916,-0.20096 1.1053,-0.20097 1.75843,-0.75362 l 0.45217,-0.45217 q 0.6029,-0.50241 1.35651,-0.95458 0.80386,-0.50241 1.50723,-1.00482 0.75362,-0.55265 1.35651,-1.15554 0.65313,-0.60289 1.00482,-1.30627 0.10048,-0.20096 0.2512,-0.70337 0.20097,-0.55265 0.35169,-1.15554 0.15072,-0.6029 0.25121,-1.10531 0.15072,-0.55265 0.15072,-0.80385 0,-0.0502 0,-0.20097 0,-0.20096 -0.0502,-0.2512 -0.45217,-0.65313 -0.60289,-1.35651 -0.15073,-0.70337 -0.15073,-1.50723 -0.2512,-0.35169 -0.35168,-0.65313 -0.10049,-0.30145 -0.45217,-0.55265 -0.10049,-0.10049 -0.6029,-0.40193 -0.45216,-0.35169 -0.55265,-0.40193 -0.45217,-0.30145 -1.15554,-0.8541 -0.65313,-0.55265 -1.40675,-1.05506 -0.70337,-0.55265 -1.40675,-0.90434 -0.65313,-0.40192 -1.1053,-0.40192 -0.2512,0 -0.45217,0.10048 -0.15072,0.0502 -0.40193,0.10048 -0.50241,0.10048 -0.85409,0.10048 -0.30145,0 -0.70338,0 -0.2512,0 -0.50241,-0.0502 -0.20096,-0.0502 -0.45217,-0.0502 h -0.0502 q -0.10048,0 -0.35168,0.0502 -0.25121,0 -0.25121,0.0502 -0.10048,0 -0.20096,0.0502 -0.0502,0 -0.10049,0 l -3.0647,2.51205 -0.10048,0.0502 -2.31109,1.60772 q -0.60289,0.45217 -0.65313,1.40675 0,0.90433 -0.15072,1.50723 -0.10048,0.40192 -0.40193,1.00482 -0.30145,0.55265 -0.30145,1.05506 z" />
      <path
         id="path4642"
         style="font-style:normal;font-variant:normal;font-weight:normal;font-stretch:normal;font-family:'Lethargic BRK';-inkscape-font-specification:'Lethargic BRK';fill:#ff7f2a;fill-opacity:1"
         d="m 265.92485,276.66825 q 0,-0.50241 0.2512,-0.85409 0.30145,-0.35169 0.60289,-0.65314 0.35169,-0.30144 0.6029,-0.60289 0.30144,-0.30145 0.30144,-0.65313 v -2.31109 q 0.10048,-0.2512 0.10048,-0.50241 0,-0.2512 0,-0.45217 0.10049,-0.15072 0.30145,-0.60289 0.20096,-0.45217 0.30145,-0.55265 0.20096,-0.35169 0.45216,-0.75362 0.25121,-0.40192 0.25121,-0.80385 0,-0.15073 -0.0502,-0.25121 -0.0502,-0.10048 0,-0.15072 0.0502,-0.50241 0.15072,-0.80386 0.10048,-0.30144 0.10048,-0.80385 v -0.50241 q -0.10048,-0.20097 -0.50241,-0.8541 -0.35168,-0.70337 -0.50241,-0.80386 v -1.15554 q 0.10049,-0.10048 0.40193,-0.50241 0.30145,-0.45217 0.40193,-0.55265 0.0502,-0.0502 0.10048,-0.20097 v -1.05506 q -0.70337,-0.70337 -1.00482,-1.70819 -0.2512,-1.00482 -0.2512,-1.9594 0,-0.35169 0.15072,-0.65313 0.20096,-0.30145 0.20096,-0.65314 0,-0.2512 -0.10048,-0.60289 -0.10048,-0.35169 -0.30144,-0.50241 -0.0503,-0.45217 -0.10049,-0.8541 0,-0.45217 -0.20096,-0.85409 -0.10048,-0.20097 -0.35169,-0.65314 -0.2512,-0.50241 -0.2512,-0.65313 v -0.10048 q 0.30144,0 0.60289,0.15072 0.30145,0.15072 0.55265,0.30145 0.25121,0 0.90434,0.0502 0.70337,0.0502 0.95458,0.10048 0.55265,0.10048 0.95458,0.40193 0.45217,0.2512 1.00482,0.2512 0.50241,0 0.95458,-0.15072 0.50241,-0.20096 0.95458,-0.30145 0.75361,-0.10048 1.55747,-0.10048 0.85409,0 1.55747,0 0.10048,-0.0502 0.35169,-0.15072 0.30144,-0.10048 0.65313,-0.20097 0.35169,-0.10048 0.60289,-0.20096 0.30145,-0.10048 0.40193,-0.10048 v 0.90434 q -0.15072,0.10048 -0.15072,0.30144 0,0.15073 -0.10049,0.25121 -0.30144,0.45217 -0.90433,0.65313 -0.55266,0.20097 -0.55266,0.80386 0,0.50241 0.25121,0.90434 0.2512,0.35168 0.2512,1.05506 0,0.15072 -0.15072,0.65313 -0.10048,0.50241 -0.2512,1.1053 -0.15073,0.55265 -0.35169,1.05506 -0.15072,0.45217 -0.25121,0.55265 0,0.80386 -0.10048,1.60772 -0.0502,0.75361 -0.0502,1.50723 0,0.70337 0.40193,1.25602 0.40193,0.50241 0.40193,1.10531 0,0.10048 -0.0502,0.20096 -0.0502,0.0502 -0.0502,0.15072 0,0.20097 0.10048,0.20097 v 0.0502 q 0,0.30144 -0.25121,0.50241 -0.20096,0.20096 -0.50241,0.35168 -0.2512,0.15073 -0.50241,0.30145 -0.20096,0.15072 -0.20096,0.35169 0,0.35168 0.40193,0.75361 0.40192,0.35169 0.60289,0.6029 0.10048,0.15072 0.20096,0.45216 0.15073,0.30145 0.25121,0.65314 0.10048,0.30144 0.15072,0.60289 0.10048,0.30145 0.10048,0.40193 0,0.0502 -0.0502,0.10048 -0.0502,0.0502 -0.0502,0.10048 v 0.0502 q 0,0.60289 0.15072,1.40675 0.20097,0.80386 0.45217,1.60771 0.30145,0.80386 0.55265,1.60772 0.30145,0.75361 0.50241,1.30626 0.0502,0.0502 0.0502,0.20097 0,0.0502 0,0.15072 0,0.10048 -0.10049,0.10048 h -0.50241 q -0.75361,0 -1.40675,-0.35169 -0.65313,-0.40192 -1.3565,-0.60289 -0.45217,-0.15072 -1.00482,-0.20096 -0.55265,-0.10048 -1.00482,-0.10048 -0.25121,0 -0.20097,0 0.0502,0 -0.20096,0.10048 -0.20097,0.10048 -0.95458,0.40193 h -2.21061 q -0.50241,0.2512 -1.05506,0.45217 -0.55265,0.20096 -1.05506,0.30144 -0.10048,-0.10048 -0.20096,-0.10048 -0.10048,0 -0.20097,0.0502 -0.10048,0 -0.15072,0.0502 h -1.50723 q -0.15072,0 -0.20096,-0.15072 -0.0502,-0.15072 -0.0502,-0.25121 z m 0.45216,-32.30497 q 0,-0.65313 0.20097,-1.20578 0.2512,-0.55265 0.2512,-1.20579 0,-0.40192 -0.10048,-0.70337 -0.10048,-0.35169 -0.10048,-0.75362 v -0.80385 q 0,-0.10048 0.10048,-0.50241 0.15073,-0.45217 0.35169,-0.45217 h 0.8541 l 5.67723,0.55265 q 0.10048,0.0502 0.35169,0.10048 0.2512,0.0502 0.35168,0.0502 0.75362,0 1.50724,-0.20096 0.75361,-0.25121 1.50723,-0.25121 0.55265,0 0.95457,0.20097 0.40193,0.15072 0.95458,0.2512 0.0502,0 0.0502,0.0502 0,0.35169 -0.35169,0.6029 -0.30145,0.2512 -0.30145,0.65313 0,0.60289 0.35169,1.25602 0.35169,0.6029 0.35169,1.25603 v 0.0502 q 0,0.20096 -0.0502,0.55265 0,0.35169 -0.0502,0.35169 0,0.0502 -0.15072,0.2512 -0.0502,0.15073 -0.0502,0.45217 0,0.30145 -0.0502,0.6029 -0.0502,0.2512 -0.20096,0.50241 -0.10049,0.20096 -0.30145,0.20096 -0.10048,0 -0.45217,0.0502 -0.35169,0 -0.45217,0 -0.15072,0 -0.50241,0 -0.35169,-0.0502 -0.40193,-0.0502 -0.95458,-0.10048 -1.90916,-0.45217 -0.90433,-0.40193 -1.85891,-0.40193 -0.40193,0 -0.80386,0.20097 -0.35169,0.15072 -0.80386,0.2512 -0.10048,0 -0.35168,0.0502 -0.20097,0 -0.25121,0 h -1.25602 q -0.55265,0.10048 -1.05506,0.45217 -0.45217,0.30145 -1.00482,0.30145 -0.35169,0 -0.55266,-0.25121 -0.20096,-0.2512 -0.30144,-0.60289 -0.10048,-0.40193 -0.15073,-0.75361 0,-0.40193 0,-0.65314 z" />
      <path
         id="path4644"
         style="font-style:normal;font-variant:normal;font-weight:normal;font-stretch:normal;font-family:'Lethargic BRK';-inkscape-font-specification:'Lethargic BRK';fill:#ff7f2a;fill-opacity:1"
         d="m 300.29049,276.51753 q -0.0502,0 -0.15072,0.0502 -0.10049,0 -0.15073,0 -0.0502,0 -0.30144,-0.0502 -0.25121,-0.10048 -0.30145,-0.10048 h -0.0502 q -0.10048,0 -0.2512,0.0502 -0.10049,0.0502 -0.20097,0.0502 -0.75361,0 -1.35651,-0.50241 -0.60289,-0.50241 -1.3565,-0.50241 -0.35169,0 -0.55265,0.15072 -0.15073,0.15073 -0.35169,0.35169 -0.15072,0.20096 -0.40193,0.35169 -0.2512,0.15072 -0.75361,0.15072 h -0.0503 l -1.75843,-0.90434 q -0.30145,-0.0502 -0.35169,-0.10048 0,-0.0502 -0.2512,-0.15072 -0.40193,-0.25121 -0.70338,-0.35169 -0.30144,-0.15072 -0.55265,-0.55265 -0.30144,-0.50241 -0.65313,-1.40675 -0.30145,-0.90434 -0.30145,-1.50723 0,-0.15072 0.20097,-0.50241 0.20096,-0.40193 0.2512,-0.55265 0.25121,-1.15554 0.25121,-2.11012 0,-0.30145 0,-0.65314 0.0502,-0.35168 -0.20097,-0.60289 l -0.0502,-1.60771 q 0.0502,-0.0502 0.10048,-0.20097 0.10049,-0.20096 0.15073,-0.30144 0,-0.0502 0,-0.20097 0.0502,-0.20096 0.10048,-0.2512 0,-0.0502 0.10048,-0.15072 0.10048,-0.10049 0.15072,-0.10049 0.45217,-0.60289 0.45217,-1.50723 0,-0.2512 -0.0502,-0.40192 -0.0502,-0.20097 -0.0502,-0.45217 0,-0.70338 0.40193,-1.30627 0.40193,-0.60289 0.40193,-1.00482 0,-0.20096 -0.10049,-0.30145 0.0503,-0.40192 0.0503,-0.85409 0,-0.50241 -0.20097,-0.90434 -0.10048,0 -0.10048,-0.10048 -1.15554,-0.8541 -2.26085,-1.50723 -1.1053,-0.70338 -2.36132,-1.40675 -0.0502,0 -0.20097,-0.10048 -0.10048,-0.15073 -0.15072,-0.15073 h -0.0502 q -0.40193,0 -0.70338,0.20097 -0.2512,0.15072 -0.55265,0.2512 -0.65313,0.20097 -1.30626,0.45217 -0.65314,0.25121 -1.25603,0.50241 -0.45217,0.20097 -0.75361,0.50241 -0.30145,0.25121 -0.8541,0.40193 -0.20097,-0.10048 -0.25121,-0.20096 0.15073,-0.40193 0.30145,-0.8541 0.15072,-0.45217 0.15072,-0.90434 0,-0.55265 -0.30144,-1.00482 -0.25121,-0.45217 -0.25121,-1.1053 v -0.30145 q 0,-0.20096 0,-0.80386 0.0502,-0.65313 0.10048,-0.75361 0,-0.25121 0.10049,-0.65313 0.10048,-0.40193 0.50241,-0.40193 0.75361,0 1.30626,0.40193 0.55265,0.35168 1.1053,0.80385 0.55266,0.40193 1.10531,0.80386 0.55265,0.35169 1.30626,0.35169 0.20097,0 0.90434,-0.45217 0.70338,-0.50241 1.45699,-1.10531 0.80386,-0.65313 1.40675,-1.20578 0.60289,-0.60289 0.60289,-0.80386 0,-0.55265 -0.2512,-1.00482 -0.25121,-0.50241 -0.35169,-1.00482 0.15072,-0.10048 0.45217,-0.10048 0.35169,-0.0502 0.40193,-0.0502 0.20096,-0.10048 0.40192,-0.35169 0.25121,-0.30144 0.50241,-0.55265 0.25121,-0.2512 0.45217,-0.45217 0.25121,-0.20096 0.45217,-0.15072 l 0.50241,-0.55265 h 0.10048 0.10049 l 0.15072,0.10048 q 0.15072,0 0.40193,-0.0502 0.30144,-0.10048 0.40193,-0.20096 h 1.05506 q 0.15072,0 0.20096,-0.10049 0.0502,-0.15072 0.15072,-0.2512 0.15073,-0.15072 0.40193,-0.40193 0.25121,-0.30145 0.30145,-0.35169 0.0502,0 0.40193,-0.10048 0.35168,-0.15072 0.60289,-0.2512 0.40193,-0.15073 0.65313,-0.40193 0.25121,-0.30145 0.50241,-0.60289 0.30145,-0.30145 0.60289,-0.50241 0.35169,-0.25121 0.8541,-0.25121 h 0.30145 q 0.10048,0.0502 0.10048,0.20097 0,0.10048 0,0.15072 0,0.8541 -0.60289,1.9594 -0.55265,1.05506 -0.90434,1.75843 -0.20096,0.35169 -0.25121,0.75362 0,0.40193 -0.10048,0.75361 -0.15072,0.50241 -0.55265,0.90434 -0.35169,0.40193 -0.55265,0.8541 l 1.35651,1.35651 q 0.10048,0.10048 0.50241,0.45217 0.45217,0.30144 0.90434,0.65313 0.50241,0.35169 0.95457,0.65313 0.45217,0.25121 0.6029,0.25121 0.60289,0 1.15554,-0.30145 0.55265,-0.35169 1.1053,-0.55265 0.20097,-0.0502 0.60289,-0.20096 0.40193,-0.15073 0.8541,-0.25121 0.50241,-0.10048 0.90434,-0.20096 0.45217,-0.10049 0.70337,-0.10049 0.25121,0 0.30145,0.30145 0.0502,0.25121 0.0502,0.45217 0,0.65313 -0.30144,1.15554 -0.30145,0.50241 -0.30145,1.10531 0,0.70337 0.30145,1.3565 0.30144,0.60289 0.30144,1.30627 0,0.10048 -0.15072,0.55265 -0.15072,0.45217 -0.40193,0.45217 -0.45217,0 -0.90434,-0.30145 -0.40193,-0.35168 -0.80385,-0.70337 -0.40193,-0.40193 -0.80386,-0.75362 -0.40193,-0.35168 -0.80386,-0.45217 -0.20096,-0.0502 -0.80385,-0.0502 -0.60289,-0.0502 -0.80386,-0.0502 h -0.10048 -0.15072 q -0.10049,0.0502 -0.55266,0.25121 -0.40192,0.20096 -0.50241,0.2512 -0.2512,0.15073 -1.00482,0.60289 -0.70337,0.45217 -1.45698,1.00483 -0.75362,0.50241 -1.35651,1.00482 -0.60289,0.45216 -0.60289,0.65313 0,0.60289 0.40192,1.20578 0.40193,0.55265 0.40193,1.20579 0,0.30144 -0.10048,0.60289 -0.10048,0.30145 -0.10048,0.65313 0,0.75362 0.35168,1.50723 0.35169,0.75362 0.35169,1.50723 0,0.70338 -0.15072,1.40675 -0.10048,0.65313 -0.10048,1.35651 0,0.55265 0.55265,1.00482 0.2512,0.2512 0.45217,0.35169 0.2512,0.10048 0.50241,0.30144 0.20096,0.20097 0.75361,0.65314 0.60289,0.40192 1.25603,0.85409 0.65313,0.45217 1.25602,0.80386 0.65314,0.30145 1.00482,0.30145 0.70338,0 1.45699,-0.15073 0.80386,-0.20096 1.35651,-0.60289 0.45217,-0.40193 0.8541,-0.75362 0.40193,-0.35168 1.05506,-0.35168 0,0.70337 0.20096,1.15554 v 2.56229 q 0.25121,0.65314 0.25121,1.35651 0,0.10048 0,0.45217 0,0.35169 -0.0502,0.75361 -0.0502,0.35169 -0.15073,0.65314 -0.10048,0.2512 -0.30144,0.2512 h -0.70338 q -0.70337,0 -1.40674,0 -0.65314,0 -1.35651,-0.10048 -0.95458,-0.15072 -1.90916,-0.30145 -0.95458,-0.20096 -1.9594,-0.20096 z" />
      <path
         id="path4646"
         style="font-style:normal;font-variant:normal;font-weight:normal;font-stretch:normal;font-family:'Lethargic BRK';-inkscape-font-specification:'Lethargic BRK';fill:#ff7f2a;fill-opacity:1"
         d="m 311.50992,270.2374 q 0,-0.50241 0.10048,-0.95458 0.15072,-0.50241 0.15072,-1.00482 0,-0.55265 -0.35168,-1.1053 -0.35169,-0.55265 -0.35169,-1.15554 0,-0.35169 0.10048,-0.70338 0.10048,-0.40192 0.15073,-0.75361 0.20096,-0.10048 0.2512,-0.30145 0.10048,-0.2512 0.10048,-0.40192 v -1.65796 q -0.10048,-0.10048 -0.10048,-0.30144 0,-0.20097 0,-0.30145 0,-0.25121 0.0502,-0.45217 0.0502,-0.20096 0.0502,-0.45217 0,-0.8541 -0.35168,-1.55747 -0.30145,-0.75362 -0.6029,-1.55747 -0.10048,-0.25121 -0.20096,-0.35169 -0.10048,-0.15072 -0.15072,-0.50241 -0.0503,-0.30144 0.2512,-0.75361 0.30145,-0.45217 0.25121,-0.6029 -0.0502,-0.35168 -0.30145,-0.65313 -0.20096,-0.30145 -0.40193,-0.55265 0,-0.0502 -0.0502,-0.20096 0,-0.15073 0,-0.20097 -0.20096,-0.50241 -0.55265,-0.90434 -0.35169,-0.40192 -0.35169,-0.95458 0,-0.15072 0.0502,-0.2512 0.0502,-0.10048 0.0502,-0.20097 0,-0.10048 -0.0502,-0.15072 -0.0502,-0.0502 -0.0502,-0.15072 0,-0.40193 0.15073,-0.75362 0.15072,-0.35168 0.60289,-0.35168 0.55265,0 0.95458,0.2512 0.45217,0.20097 0.80385,0.50241 0.40193,0.30145 0.75362,0.55265 0.40193,0.20097 0.90434,0.20097 0.65313,0 1.40675,0 0.80385,0 1.40674,-0.25121 0.40193,-0.15072 0.6029,-0.30144 0.2512,-0.15073 0.65313,-0.20097 0.8541,-0.15072 1.70819,-0.2512 0.90434,-0.15073 1.75844,-0.15073 0.10048,0 0.30144,0 0.20097,0 0.30145,0.0502 0.15072,0.20097 0.25121,0.25121 0.10048,0.0502 0.10048,0.45217 0,0.8541 -0.55265,1.40675 -0.55265,0.50241 -0.70338,1.20578 0,0.10048 0,0.60289 0.0502,0.45217 0,0.55265 -0.10048,0.55266 -0.45217,1.10531 -0.30144,0.55265 -0.35168,1.05506 l -0.15073,2.11012 q -0.40192,0.55265 -0.50241,1.20579 -0.0502,0.60289 -0.40192,1.15554 v 1.25602 q 0.20096,0.25121 0.2512,0.65314 0.0502,0.35168 0.0502,0.60289 0,0.70337 -0.10048,1.35651 -0.10048,0.60289 -0.55265,1.20578 v 0.0502 q 0,0.45217 0.45217,0.90434 0.45217,0.45217 0.70337,0.70337 0.70338,0.70338 1.50723,1.25603 0.80386,0.50241 1.50723,1.05506 0.8541,0.70337 1.55747,1.25603 0.70338,0.50241 1.7082,0.95458 0.2512,0.10048 0.30144,0.15072 0.10049,0.0502 0.25121,0.0502 0.35169,0 0.60289,-0.15072 0.25121,-0.20097 0.45217,-0.40193 0.20096,-0.20097 0.35169,-0.35169 0.15072,-0.20096 0.2512,-0.20096 h 1.7082 q 0.30144,-0.45217 0.45217,-0.50241 0.20096,-0.10049 0.70337,-0.45217 0.15072,-0.10048 0.65313,-0.45217 0.50241,-0.40193 1.00482,-0.80386 0.55265,-0.40193 0.95458,-0.70337 0.45217,-0.35169 0.45217,-0.40193 l 0.45217,-1.15554 q 0.35169,-0.30145 0.35169,-0.50241 0,-0.25121 0.2512,-0.55265 l 0.20097,-1.80868 0.10048,-0.15072 v -1.35651 q -0.25121,-0.40193 -0.25121,-0.75362 0,-0.40192 -0.20096,-0.80385 v -1.7082 q 0.25121,-0.30144 0.25121,-0.95458 0,-0.75361 -0.6029,-1.30626 -0.55265,-0.60289 -0.90434,-1.15555 -0.0502,-0.10048 -0.15072,-0.2512 -0.0502,-0.20096 -0.10048,-0.30145 v -0.10048 q 0,-0.0502 -0.0502,-0.10048 -0.0502,-0.10048 -0.0502,-0.15072 0.10048,-0.75362 -0.0502,-1.30627 -0.10049,-0.60289 -0.30145,-1.05506 -0.15072,-0.50241 -0.30145,-1.00482 -0.15072,-0.50241 -0.15072,-1.15555 v -0.50241 q -0.0502,-0.20096 0.0502,-0.20096 0.10048,0 0.20097,0 0.65313,0 1.1053,0.30145 0.50241,0.30144 1.05506,0.30144 0.40193,0 0.75362,-0.0502 0.40192,-0.10048 0.80385,-0.10048 0.80386,0 1.45699,0.45217 0.65313,0.45217 1.45699,0.45217 0.60289,0 1.25603,-0.20097 0.70337,-0.20096 1.25602,-0.35168 0.60289,-0.20097 1.1053,-0.6029 0.50241,-0.45216 1.20579,-0.45216 0.2512,0 0.40193,0.0502 0.20096,0.0502 0.20096,0.30144 0,0.60289 -0.20096,0.95458 -0.20097,0.30145 -0.40193,0.80386 v 0.55265 q 0,0.40193 0.10048,0.70337 0.10048,0.30145 0.10048,0.70338 0,0.40193 -0.0502,0.60289 -0.0502,0.20096 -0.15072,0.60289 -0.70338,0.65314 -1.40675,1.60771 -0.65313,0.95458 -0.65313,1.9594 0,0.15073 0.10048,0.25121 l 0.20096,1.60771 q 0.10048,0.10048 0.0502,0.20097 0,0.10048 0,0.20096 0,0.2512 -0.0502,0.45217 -0.0502,0.15072 -0.0502,0.40193 0,0.30144 0.0502,0.50241 0.10048,0.20096 0.10048,0.50241 0,0.60289 -0.30144,1.20578 -0.25121,0.55265 -0.25121,1.20579 0,0.2512 0.20097,0.55265 0.20096,0.30144 0.40193,0.60289 0.2512,0.30144 0.45216,0.65313 0.20097,0.35169 0.20097,0.70338 0,0.65313 -0.40193,1.15554 -0.35169,0.45217 -0.35169,1.00482 0,0.40193 -0.0502,1.00482 0,0.55265 0.25121,0.95458 0.0502,0.10048 0.2512,0.40193 0.25121,0.2512 0.35169,0.40193 0.20096,0.45216 0.40193,0.95457 0.2512,0.50241 0.60289,0.90434 0.35169,0.45217 0.75361,0.90434 0.45217,0.40193 0.45217,1.05506 0,0.0502 0,0.20097 0,0.15072 -0.10048,0.15072 h -0.35169 q -0.55265,0 -1.25602,-0.15072 -0.70337,-0.20097 -1.00482,-0.25121 -0.30145,-0.0502 -0.50241,-0.10048 -0.20097,-0.0502 -0.30145,-0.10048 -0.50241,-0.20097 -1.00482,-0.20097 -0.45217,0 -0.95458,-0.10048 -0.45217,-0.0502 -0.85409,-0.2512 -0.35169,-0.20097 -0.70338,-0.40193 -0.30144,-0.25121 -0.65313,-0.45217 -0.30145,-0.20097 -0.65313,-0.20097 h -0.30145 q -0.35169,0.10049 -0.60289,0.40193 -0.20097,0.30145 -0.65314,0.50241 -0.0502,0 -0.10048,0.0502 -0.0502,0 -0.10048,0 h -1.40675 q -0.15072,-0.15072 -0.45217,-0.0502 -0.0502,-0.10048 -0.30144,-0.40193 -0.20097,-0.30144 -0.30145,-0.40192 -0.0502,-0.10049 -0.30145,-0.35169 -0.2512,-0.30145 -0.30144,-0.35169 -0.10048,-0.0502 -0.30145,-0.30144 -0.20096,-0.25121 -0.45217,-0.50241 -0.20096,-0.30145 -0.40192,-0.50241 -0.20097,-0.25121 -0.25121,-0.30145 -0.20096,-0.10048 -0.45217,0.30145 -0.20096,0.40192 -0.30145,0.50241 -0.55265,0.70337 -1.05506,1.3565 -0.45217,0.65314 -1.20578,1.10531 -0.30145,0.20096 -0.70337,0.2512 -0.40193,0 -0.65314,0.20097 h -0.45217 q -0.40193,0 -0.80385,-0.10049 -0.35169,-0.10048 -0.75362,-0.10048 -0.2512,0 -0.50241,0.15072 -0.20096,0.15073 -0.45217,0.30145 -0.20096,0.15072 -0.50241,0.30145 -0.2512,0.15072 -0.65313,0.15072 -0.65313,0 -1.15554,-0.30145 -0.50241,-0.30144 -1.10531,-0.40192 -0.55265,-0.10049 -1.1053,-0.10049 -0.55265,0 -1.1053,-0.10048 -0.35169,-0.0502 -0.75362,-0.20096 -0.35168,-0.15073 -0.75361,-0.20097 -0.25121,-0.0502 -0.60289,-0.0502 -0.35169,-0.0502 -0.6029,-0.15072 -0.0502,0 -0.2512,-0.25121 h -0.30145 l -0.15072,-0.20096 q -0.10048,-0.0502 -0.40193,-0.10048 -0.2512,-0.10048 -0.60289,-0.20097 -0.30145,-0.10048 -0.55265,-0.15072 -0.25121,-0.10048 -0.30145,-0.15072 -0.15072,-0.15073 -0.35168,-0.70338 -0.20097,-0.60289 -0.40193,-1.25602 -0.15073,-0.70338 -0.30145,-1.30627 -0.10048,-0.60289 -0.10048,-0.90434 z" />
      <path
         id="path4648"
         style="font-style:normal;font-variant:normal;font-weight:normal;font-stretch:normal;font-family:'Lethargic BRK';-inkscape-font-specification:'Lethargic BRK';fill:#ff7f2a;fill-opacity:1"
         d="m 356.58318,276.76874 q -0.45217,-0.30145 -1.35651,-0.30145 -0.90434,0 -1.40675,-0.0502 -0.90434,-0.0502 -1.65795,-0.65313 -0.75362,-0.65314 -1.60771,-1.05507 -0.35169,-0.15072 -0.70338,-0.15072 -0.35169,0 -0.70337,-0.10048 -0.10048,0 -0.20097,-0.25121 -0.10048,-0.2512 -0.15072,-0.35168 -0.0502,-0.10049 -0.20096,-0.65314 -0.10049,-0.60289 -0.15073,-0.70337 -0.20096,-0.55265 -0.65313,-1.1053 -0.45217,-0.6029 -0.75362,-1.10531 -0.0502,-0.0502 -0.2512,-0.50241 -0.20096,-0.50241 -0.20096,-0.55265 0,-0.2512 0,-0.60289 0,-0.40193 0.10048,-0.50241 0.10048,-0.10048 0.20096,-0.10048 0.10048,-0.0502 0.15072,-0.0502 1.15555,0 2.16037,0.50241 1.00482,0.50241 2.16036,0.65313 0.60289,0.10048 1.25603,0.10048 0.70337,0 1.30626,0 0.55265,0 0.90434,-0.2512 0.35169,-0.30145 0.70338,-0.30145 0.10048,0 0.15072,0.20097 0.0502,0.10048 0.15072,0.40192 0.10048,0.30145 0.15073,0.40193 0.80385,0.8541 1.65795,1.7082 0.90434,0.85409 1.85892,1.55747 0.35168,0.2512 0.75361,0.2512 0.45217,0 0.8541,0.10049 0.20096,0.10048 0.55265,0.20096 0.35169,0.0502 0.40193,0.10048 h 0.60289 q 0.70337,0 1.35651,-0.15072 0.65313,-0.15072 1.30626,-0.30145 0.95458,-0.85409 2.05988,-1.65795 1.10531,-0.8541 2.05989,-1.55747 0.15072,-0.15073 0.15072,-0.30145 0,-0.20096 -0.40193,-0.60289 -0.35169,-0.40193 -0.8541,-0.8541 -0.50241,-0.45217 -1.00482,-0.8541 -0.45217,-0.40192 -0.65313,-0.55265 -0.20096,-0.20096 -0.80386,-0.75361 -0.60289,-0.55265 -0.80385,-0.75362 -0.30145,-0.2512 -1.05506,-0.30144 -0.75362,-0.0502 -1.15555,-0.25121 -0.0502,0 -0.30144,-0.15072 -0.25121,-0.15072 -0.30145,-0.20096 -0.50241,-0.25121 -0.95458,-0.25121 -0.45217,0 -1.00482,-0.10048 -0.30144,-0.0502 -0.60289,-0.20097 -0.25121,-0.15072 -0.55265,-0.15072 -0.30145,0 -0.50241,0.20097 -0.20097,0.15072 -0.40193,0.40192 -0.20096,0.20097 -0.40193,0.40193 -0.15072,0.15072 -0.35168,0.15072 -0.55266,0 -0.80386,-0.30144 -0.25121,-0.35169 -0.65313,-0.55265 -0.6029,-0.35169 -1.35651,-0.6029 -0.70338,-0.2512 -1.45699,-0.30144 l -1.60771,-0.8541 q -1.55747,0 -1.65796,-0.15072 -0.0502,-0.15072 -0.10048,-0.25121 -0.15072,-0.45217 -0.20096,-0.50241 0,-0.10048 -0.25121,-0.55265 l -0.15072,-1.75843 q -0.15072,-0.25121 -0.20096,-0.45217 0,-0.20097 -0.15073,-0.45217 -0.35168,-0.50241 -0.70337,-0.90434 -0.35169,-0.45217 -0.35169,-1.1053 0,-0.10048 0.15072,-0.25121 0.20097,-0.20096 0.45217,-0.40193 0.25121,-0.20096 0.45217,-0.35168 0.25121,-0.15073 0.35169,-0.25121 0.0502,-0.0502 0.35169,-0.2512 0.30144,-0.20097 0.35168,-0.30145 0.25121,-0.15072 0.20097,-0.40193 0,-0.30144 0.2512,-0.55265 L 351.7098,252 h 0.20096 q 0.55265,0 1.05506,0.30144 0.55266,0.30145 1.10531,0.30145 0.60289,0 1.1053,-0.30145 0.55265,-0.30144 1.05506,-0.60289 0.50241,-0.35169 1.00482,-0.65313 0.50241,-0.30145 1.1053,-0.30145 0.10048,0 0.20097,0 0.15072,0 0.2512,0.10048 h 1.9594 q 0.40193,-0.20096 0.8541,-0.15072 0.50241,0.0502 0.90434,-0.0502 0.40192,-0.0502 0.75361,-0.25121 0.40193,-0.20096 0.80386,-0.20096 0.8541,0 1.60771,0.40193 0.80386,0.40193 1.65795,0.40193 0.55266,0 1.20579,-0.10049 0.65313,-0.10048 1.15554,-0.15072 0.15072,-0.15072 0.25121,-0.15072 0.10048,-0.0502 0.2512,-0.0502 0.60289,0 1.05506,0.20096 0.50241,0.15072 1.10531,0.25121 0.80385,0.15072 1.40674,0.35168 0.6029,0.20097 1.10531,0.55265 0.50241,0.30145 0.95458,0.75362 0.50241,0.40193 1.1053,1.00482 1.00482,0.35169 1.00482,1.50723 0,0.2512 -0.0502,0.45217 -0.0502,0.15072 -0.0502,0.40193 0,0.45217 0.0502,0.90434 0.10048,0.45216 0.10048,0.90433 0,0.25121 -0.0502,0.25121 H 377.584 q -1.05506,0 -2.00964,-0.50241 -0.90434,-0.55265 -1.80868,-0.55265 -0.55265,0 -1.1053,0.15072 -0.50241,0.10048 -1.1053,0.10048 -0.8541,0 -1.40675,-0.40193 -0.50241,-0.40192 -1.15554,-0.40192 -0.25121,0 -0.50241,0.10048 -0.25121,0.10048 -0.55265,0.10048 -0.10049,0 -0.20097,-0.10048 l -1.75843,-1.75844 q -0.30145,-0.2512 -0.65314,-0.60289 -0.30144,-0.35169 -0.70337,-0.45217 h -0.60289 q -1.25603,0 -2.31109,0.35169 -0.95458,0.55265 -1.75843,1.25602 -0.80386,0.65314 -1.65796,1.30627 -0.2512,0.15072 -0.40193,0.25121 -0.15072,0.10048 -0.15072,0.40192 0,0.40193 0.45217,0.75362 0.45217,0.30144 0.70337,0.65313 l 3.46663,2.96422 q 0.40193,0.40193 0.8541,0.45217 0.50241,0 1.00482,0.10048 0.15072,0.0502 0.70338,0.20097 0.55265,0.15072 0.70337,0.2512 h 0.0502 q 0.25121,0 0.50241,-0.10048 0.25121,-0.15072 0.50241,-0.15072 0.45217,0 0.70337,0.20096 0.30145,0.20096 0.55266,0.45217 0.2512,0.20096 0.50241,0.40193 0.30144,0.15072 0.70337,0.15072 0.35169,0 0.65313,-0.10048 0.30145,-0.15072 0.65314,-0.15072 0.40192,0 0.70337,0.30144 0.30145,0.25121 0.70338,0.25121 0.40192,0 0.80385,-0.10048 0.40193,-0.10049 0.80386,-0.10049 0.80385,0 1.30626,0.35169 0.55265,0.35169 1.20579,0.70337 0.35169,0.20097 0.75361,0.15073 0.40193,-0.10048 0.75362,0.10048 0.55265,0.40193 0.75361,1.05506 0.20097,0.60289 0.30145,1.15554 0.0502,0.25121 0.15072,0.6029 0.10048,0.35168 0.10048,0.60289 0,0.15072 -0.0502,0.30144 -0.0502,0.15073 -0.0502,0.30145 -0.0502,0.10048 -0.2512,0.65313 -0.15073,0.50241 -0.15073,0.65314 -0.0502,0.10048 -0.0502,0.55265 0.0502,0.40193 0.0502,0.50241 0,0.2512 -0.2512,0.70337 -0.20096,0.40193 -0.55265,0.8541 -0.30145,0.40193 -0.65313,0.75361 -0.35169,0.35169 -0.6029,0.45217 -0.0502,0 -0.2512,0.0502 -0.20097,0 -0.25121,0.0503 -0.0502,0 -0.35168,0.15072 -0.15073,0.0502 -0.50241,0.15072 -0.30145,0.0502 -0.40193,0.0502 -0.0502,0 -0.30145,-0.0502 -0.20096,-0.0502 -0.2512,-0.0502 h -0.10049 q -0.0502,0 -0.2512,0.10048 -0.15072,0.10048 -0.25121,0.15073 -0.0502,0.0502 -0.2512,0.20096 -0.15072,0.15072 -0.20096,0.15072 -0.40193,0.20097 -0.90434,0.25121 -0.45217,0 -0.8541,0.10048 -1.00482,0.25121 -1.90916,0.70337 -0.8541,0.45217 -2.00964,0.45217 -0.50241,0 -1.00482,-0.2512 -0.45217,-0.25121 -0.90434,-0.35169 -0.10048,0 -0.35168,0.15072 -0.20097,0.15073 -0.50241,0.35169 -0.30145,0.20097 -0.65314,0.40193 -0.30144,0.15072 -0.60289,0.15072 -0.55265,0 -1.05506,-0.10048 -0.45217,-0.10048 -1.00482,-0.15072 -1.15554,-0.10048 -2.26085,-0.10048 -1.05506,-0.0503 -2.26084,0 z" />
    </g>
  </g>
</svg>
